<svg width="42" height="295" viewBox="0 0 42 295" fill="none" xmlns="http://www.w3.org/2000/svg">
<path fill-rule="evenodd" clip-rule="evenodd" d="M41.2361 52.1166L40.6764 27.4594L0.408277 0.456602L0.967968 25.1138L41.2361 52.1166ZM40.6446 198.029L40.6446 173.366L0.999625 145.456L0.999624 170.12L40.6446 198.029ZM40.6446 76.395L40.6446 101.059L0.999625 73.1489L0.999626 48.4853L40.6446 76.395ZM40.6446 246.515L40.6446 221.851L0.999623 193.941L0.999622 218.605L40.6446 246.515ZM40.6446 124.88L40.6446 149.544L0.999622 121.634L0.999623 96.9707L40.6446 124.88ZM40.6446 295L40.6446 270.336L0.999625 242.427L0.999624 267.09L40.6446 295Z" fill="url(#paint0_linear)"/>
<defs>
<linearGradient id="paint0_linear" x1="52.4994" y1="335.5" x2="-9.00057" y2="-29" gradientUnits="userSpaceOnUse">
<stop stop-color="#7653AF"/>
<stop offset="1" stop-color="#001C37"/>
</linearGradient>
</defs>
</svg>
