<svg width="736" height="83" viewBox="0 0 736 83" fill="none" xmlns="http://www.w3.org/2000/svg">
<g opacity="0.1">
<path d="M179.154 41.0368L152.463 1L125.772 1L152.463 41.0368L125.772 81.0736L152.463 81.0736L179.154 41.0368Z" stroke="#51D5FF" stroke-width="2"/>
<path d="M55.3823 41.0368L28.6911 1L1.99994 1L28.6911 41.0368L1.99994 81.0736L28.6911 81.0736L55.3823 41.0368Z" stroke="#51D5FF" stroke-width="2"/>
<path d="M240.804 41.0368L214.112 1L187.421 1L214.112 41.0368L187.421 81.0736L214.112 81.0736L240.804 41.0368Z" stroke="#51D5FF" stroke-width="2"/>
<path d="M117.504 41.0368L90.8132 1L64.122 1L90.8132 41.0368L64.122 81.0736L90.8132 81.0736L117.504 41.0368Z" stroke="#51D5FF" stroke-width="2"/>
<path d="M302.453 41.0368L275.762 1L249.071 1L275.762 41.0368L249.071 81.0736L275.762 81.0736L302.453 41.0368Z" stroke="#51D5FF" stroke-width="2"/>
<path d="M364.103 41.0368L337.411 1L310.72 1L337.411 41.0368L310.72 81.0736L337.411 81.0736L364.103 41.0368Z" stroke="#51D5FF" stroke-width="2"/>
<path d="M425.752 41.0368L399.061 1L372.37 1L399.061 41.0368L372.37 81.0736L399.061 81.0736L425.752 41.0368Z" stroke="#51D5FF" stroke-width="2"/>
<path d="M610.701 41.0368L584.01 1L557.319 1L584.01 41.0368L557.319 81.0736L584.01 81.0736L610.701 41.0368Z" stroke="#51D5FF" stroke-width="2"/>
<path d="M549.051 41.0368L522.36 1L495.669 1L522.36 41.0368L495.669 81.0736L522.36 81.0736L549.051 41.0368Z" stroke="#51D5FF" stroke-width="2"/>
<path d="M734 41.0368L707.309 1L680.618 1L707.309 41.0368L680.618 81.0736L707.309 81.0736L734 41.0368Z" stroke="#51D5FF" stroke-width="2"/>
<path d="M487.402 41.0368L460.711 1L434.019 1L460.711 41.0368L434.019 81.0736L460.711 81.0736L487.402 41.0368Z" stroke="#51D5FF" stroke-width="2"/>
<path d="M672.351 41.0368L645.659 1L618.968 1L645.659 41.0368L618.968 81.0736L645.659 81.0736L672.351 41.0368Z" stroke="#51D5FF" stroke-width="2"/>
</g>
</svg>
