<svg width="158" height="158" viewBox="0 0 158 158" fill="none" xmlns="http://www.w3.org/2000/svg">
<rect x="16.7798" y="86.712" width="15" height="15" transform="rotate(180 16.7798 86.712)" stroke="#A192FF" stroke-width="2"/>
<rect x="156.78" y="86.712" width="15" height="15" transform="rotate(180 156.78 86.712)" stroke="#A192FF" stroke-width="2"/>
<rect x="86.7798" y="86.712" width="15" height="15" transform="rotate(180 86.7798 86.712)" stroke="#A192FF" stroke-width="2"/>
<rect x="16.7798" y="16.712" width="15" height="15" transform="rotate(180 16.7798 16.712)" stroke="#A192FF" stroke-width="2"/>
<rect x="156.78" y="16.712" width="15" height="15" transform="rotate(180 156.78 16.712)" stroke="#A192FF" stroke-width="2"/>
<rect x="86.7798" y="16.712" width="15" height="15" transform="rotate(180 86.7798 16.712)" stroke="#A192FF" stroke-width="2"/>
<rect x="16.7798" y="156.712" width="15" height="15" transform="rotate(180 16.7798 156.712)" stroke="#A192FF" stroke-width="2"/>
<rect x="156.78" y="156.712" width="15" height="15" transform="rotate(180 156.78 156.712)" stroke="#A192FF" stroke-width="2"/>
<rect x="86.7798" y="156.712" width="15" height="15" transform="rotate(180 86.7798 156.712)" stroke="#A192FF" stroke-width="2"/>
</svg>
