<svg width="158" height="158" viewBox="0 0 158 158" fill="none" xmlns="http://www.w3.org/2000/svg">
<rect x="16.2188" y="86.3715" width="15" height="15" transform="rotate(180 16.2188 86.3715)" stroke="#A192FF" stroke-width="2"/>
<rect x="156.219" y="86.3715" width="15" height="15" transform="rotate(180 156.219 86.3715)" stroke="#A192FF" stroke-width="2"/>
<rect x="86.2188" y="86.3715" width="15" height="15" transform="rotate(180 86.2188 86.3715)" stroke="#A192FF" stroke-width="2"/>
<rect x="16.2188" y="16.3715" width="15" height="15" transform="rotate(180 16.2188 16.3715)" stroke="#A192FF" stroke-width="2"/>
<rect x="156.219" y="16.3715" width="15" height="15" transform="rotate(180 156.219 16.3715)" stroke="#A192FF" stroke-width="2"/>
<rect x="86.2188" y="16.3715" width="15" height="15" transform="rotate(180 86.2188 16.3715)" stroke="#A192FF" stroke-width="2"/>
<rect x="16.2188" y="156.371" width="15" height="15" transform="rotate(180 16.2188 156.371)" stroke="#A192FF" stroke-width="2"/>
<rect x="156.219" y="156.371" width="15" height="15" transform="rotate(180 156.219 156.371)" stroke="#A192FF" stroke-width="2"/>
<rect x="86.2188" y="156.371" width="15" height="15" transform="rotate(180 86.2188 156.371)" stroke="#A192FF" stroke-width="2"/>
</svg>
