<svg width="180" height="28" viewBox="0 0 180 28" fill="none" xmlns="http://www.w3.org/2000/svg">
<path d="M43.3441 25.3542C43.2339 23.7724 43.182 22.4369 43.1431 20.8487C43.0978 18.7612 43.0783 17.0043 43.0589 14.9234C43.0524 13.8018 42.9292 12.8488 42.6504 11.7597C42.2744 10.3335 41.4446 9.2444 40.1546 8.53129C39.3766 8.09694 38.6765 7.83114 37.8013 7.63666C35.0267 7.04024 32.5891 6.99486 29.8015 7.47459C29.0171 7.61721 28.3688 7.79873 27.6362 8.10342C25.9377 8.81005 24.7578 10.0807 24.2198 11.8375C24.0123 12.5117 23.954 13.1211 24.0383 13.8213C24.0577 13.9509 24.0901 14.0611 24.1485 14.1778L30.5989 14.3334C30.5859 13.925 30.6378 13.5749 30.7739 13.186C30.9814 12.596 31.4027 12.1811 31.9797 11.9672C32.8549 11.6495 33.6912 11.6366 34.5664 11.9218C35.1433 12.1098 35.5453 12.5247 35.7333 13.1082C35.85 13.4712 35.7916 13.8278 35.5712 14.1389C35.3702 14.4177 35.1433 14.5927 34.8322 14.7159C34.6377 14.7937 34.4691 14.8456 34.2746 14.8974C33.38 15.1373 32.615 15.3058 31.6945 15.4549C30.9684 15.5781 30.359 15.6883 29.6394 15.8309C28.6605 16.0319 27.8437 16.2458 26.8972 16.5505C26.0285 16.8293 25.3478 17.2312 24.6801 17.8471C23.8049 18.638 23.3122 19.591 23.1436 20.7579C23.0334 21.5423 23.0529 22.223 23.2344 22.9945C23.6882 24.9977 25.082 26.4757 27.0463 27.0462C29.231 27.6816 31.2796 27.5778 33.393 26.7221C34.4237 26.3072 35.2082 25.7367 35.9083 24.8875L35.4545 21.5877C35.1304 22.0934 34.722 22.4305 34.1774 22.6768C33.6653 22.9037 33.205 23.0269 32.641 23.0787C32.1742 23.1306 31.7788 23.0917 31.325 22.9685C30.9619 22.8583 30.6767 22.6963 30.4174 22.4175C30.1969 22.1776 30.0673 21.9313 30.0025 21.6136C29.9052 21.1274 30.0608 20.6607 30.4368 20.3365C30.6896 20.1226 30.936 19.98 31.2407 19.8633C31.9992 19.591 32.628 19.3771 33.3995 19.1631C34.333 18.8973 35.0915 18.6186 35.9731 18.2101C36.0574 18.9103 36.0509 19.5132 35.9537 20.2133C35.8824 20.7255 35.7268 21.1469 35.448 21.5812L35.9018 24.881C36.0444 25.3477 36.1741 25.7367 36.3362 26.197C36.4269 26.4498 36.5436 26.6573 36.7251 26.8582H43.8368C43.5451 26.3915 43.3895 25.9182 43.3441 25.3542Z" fill="white"/>
<path d="M86.4224 25.3542C86.3187 23.7724 86.2604 22.4369 86.2279 20.8487C86.1826 18.7612 86.1631 17.0043 86.1437 14.9234C86.1437 13.8018 86.0205 12.8488 85.7352 11.7597C85.3722 10.3335 84.5294 9.2444 83.2394 8.53129C82.4614 8.09694 81.7548 7.83114 80.8796 7.63666C78.1244 7.04024 75.6739 6.99486 72.8863 7.47459C72.1083 7.61721 71.4536 7.79873 70.721 8.10342C69.0225 8.81005 67.8491 10.0807 67.3046 11.8375C67.0971 12.5117 67.0388 13.1211 67.1231 13.8213C67.136 13.9509 67.1749 14.0611 67.2268 14.1778L73.6837 14.3334C73.6642 13.925 73.7161 13.5749 73.8587 13.186C74.0726 12.596 74.4875 12.1811 75.0775 11.9672C75.9462 11.6495 76.776 11.6366 77.6576 11.9218C78.2346 12.1098 78.6365 12.5247 78.8246 13.1082C78.9283 13.4712 78.8764 13.8278 78.656 14.1389C78.468 14.4177 78.2346 14.5927 77.917 14.7159C77.729 14.7937 77.5604 14.8456 77.3594 14.8974C76.4648 15.1373 75.6998 15.3058 74.7793 15.4549C74.0597 15.5781 73.4438 15.6883 72.7242 15.8309C71.7518 16.0319 70.9285 16.2458 69.982 16.5505C69.1198 16.8293 68.4391 17.2312 67.7649 17.8471C66.8962 18.638 66.397 19.591 66.2284 20.7579C66.1182 21.5423 66.1442 22.223 66.3192 22.9945C66.773 24.9977 68.1603 26.4757 70.1311 27.0462C72.3158 27.6816 74.3579 27.5778 76.4778 26.7221C77.5021 26.3072 78.2865 25.7367 78.9866 24.8875L78.5393 21.5877C78.2087 22.0934 77.8068 22.4305 77.2687 22.6768C76.7501 22.9037 76.2833 23.0269 75.7258 23.0787C75.2655 23.1306 74.8636 23.0917 74.4162 22.9685C74.0467 22.8583 73.7615 22.6963 73.5022 22.4175C73.2882 22.1776 73.1521 21.9313 73.0873 21.6136C72.9835 21.1274 73.1391 20.6607 73.5216 20.3365C73.768 20.1226 74.0208 19.98 74.332 19.8633C75.0775 19.591 75.7193 19.3771 76.4908 19.1631C77.4178 18.8973 78.1892 18.6186 79.0644 18.2101C79.1552 18.9103 79.1552 19.5132 79.045 20.2133C78.9737 20.7255 78.8246 21.1469 78.5458 21.5812L78.9931 24.881C79.1357 25.3477 79.2654 25.7367 79.421 26.197C79.5117 26.4498 79.6414 26.6573 79.81 26.8582H86.9281C86.6169 26.3915 86.4678 25.9182 86.4224 25.3542Z" fill="white"/>
<path d="M120.088 7.30613C119.329 7.18944 118.674 7.13757 117.916 7.13757C117.151 7.13757 116.496 7.18944 115.738 7.30613C113.54 7.64972 111.751 8.53786 110.137 10.0808C108.425 11.7339 107.479 13.6982 107.265 16.0644C107.128 17.5231 107.245 18.7807 107.641 20.194C108.244 22.3592 109.372 24.0318 111.154 25.3997C112.334 26.3008 113.501 26.8454 114.947 27.1565C115.971 27.3834 116.859 27.4742 117.916 27.4742C118.966 27.4742 119.854 27.3834 120.885 27.1565C122.331 26.8454 123.498 26.3008 124.678 25.3997L120.554 20.9006C119.906 22.3592 118.195 23.014 116.736 22.3528C116.062 22.0546 115.582 21.5748 115.284 20.9006C115.005 20.2847 114.843 19.7272 114.739 19.053C114.538 17.7046 114.564 16.5312 114.83 15.1957C114.96 14.5021 115.193 13.9316 115.576 13.3416C116.425 12.0451 118.162 11.682 119.459 12.5313C119.796 12.7517 120.049 12.998 120.269 13.3416C120.652 13.9316 120.885 14.5021 121.021 15.1957C121.28 16.5377 121.306 17.7046 121.105 19.053C121.008 19.7272 120.84 20.2847 120.561 20.9006L124.684 25.3997C126.467 24.0318 127.601 22.3592 128.204 20.194C128.593 18.7807 128.71 17.5231 128.58 16.0644C128.36 13.6917 127.42 11.7274 125.702 10.0808C124.075 8.53786 122.298 7.64972 120.088 7.30613Z" fill="white"/>
<path d="M13.0759 18.5927H8.14892V12.2914H11.3514C11.9543 12.2914 12.473 12.2785 13.0823 12.2461C13.9186 12.2007 14.6188 11.8247 15.1244 11.1505C15.3902 10.7874 15.5393 10.4244 15.6106 9.97707C15.656 9.60755 15.669 9.28341 15.6301 8.9074C15.494 7.50711 14.3335 6.45689 12.9268 6.45689H8.1554V26.8713H0V0H13.3287C13.8538 0 14.3011 0.012969 14.8327 0.0389003C18.3658 0.233385 21.2702 2.19768 22.7742 5.40019C23.5521 7.06628 23.8179 8.67402 23.6169 10.5022C23.1956 14.3659 20.5052 17.361 16.7062 18.1908C15.4486 18.4696 14.3595 18.5927 13.0759 18.5927Z" fill="white"/>
<path d="M97.0738 19.805C97.6183 19.8958 98.0851 20.0125 98.6102 20.181C99.051 20.3301 99.3492 20.6673 99.453 21.1275C99.5502 21.6137 99.4205 22.087 99.0705 22.4435C98.7074 22.8066 98.2925 23.0205 97.7869 23.0983C97.1126 23.202 96.5162 23.1502 95.868 22.9168C95.5503 22.8066 95.3039 22.6704 95.0511 22.45C94.714 22.1778 94.5066 21.8601 94.3834 21.4517C94.2732 21.1016 94.2343 20.7904 94.2408 20.4274H87.2069V20.8358C87.2069 21.4971 87.3106 22.0546 87.544 22.6769C87.9006 23.604 88.3803 24.33 89.1064 25.0043C90.0658 25.8989 91.0447 26.4564 92.3024 26.813C94.902 27.552 97.2423 27.6946 99.9132 27.2927C101.164 27.0917 102.195 26.7611 103.317 26.1777C103.816 25.9183 104.211 25.6525 104.646 25.296C106.539 23.7077 107.245 21.2702 106.487 18.9104C106.202 18.0287 105.741 17.3351 105.041 16.7257C104.069 15.8894 103.09 15.3578 101.858 14.9948C101.592 14.9105 101.359 14.8522 101.087 14.7744C99.5891 14.3595 98.2861 14.0807 96.7496 13.8538C96.3282 13.789 95.9782 13.7241 95.5697 13.6269C95.3882 13.588 95.2261 13.5361 95.0511 13.4519C94.6232 13.2574 94.4288 12.7452 94.6297 12.3174C94.6362 12.2979 94.6427 12.272 94.6557 12.2461C94.8891 11.8312 95.2326 11.5654 95.6929 11.4292C96.4838 11.1958 97.2293 11.2218 98.0138 11.4876C98.7723 11.7469 99.2455 12.4405 99.2131 13.2379H105.981C105.975 12.4081 105.845 11.7015 105.566 10.9236C105.275 10.1327 104.847 9.52976 104.185 9.00465C103.602 8.54437 103.057 8.2332 102.377 7.9674C101.703 7.70809 101.119 7.54602 100.412 7.41636C98.7334 7.13112 97.2942 7.04684 95.5892 7.15056C94.6168 7.20242 93.7999 7.3256 92.847 7.54601C91.5763 7.84422 90.5391 8.3434 89.5148 9.14727C88.6266 9.84094 88.0562 10.6448 87.6931 11.695C87.5246 12.1748 87.4403 12.5961 87.4208 13.1018C87.3884 13.9381 87.4986 14.6577 87.8163 15.4421C88.3738 16.8424 89.3657 17.8343 90.7595 18.3983C91.4726 18.6835 92.0949 18.8715 92.8405 19.0271C94.325 19.3188 95.5892 19.5522 97.0738 19.805Z" fill="white"/>
<path d="M51.8497 9.70492C52.7897 8.8816 53.6908 8.29815 54.8318 7.77304C56.6794 6.91731 58.5399 6.77468 60.4977 7.35165C62.5982 7.96752 64.1152 9.4456 64.7829 11.5396C65.0941 12.5379 65.2432 13.4325 65.2432 14.4892V26.8779H57.6129V15.7339C57.6129 15.3644 57.574 15.0403 57.4573 14.6902C57.2628 14.0549 56.8349 13.5816 56.2126 13.3158C54.8642 12.7389 53.3342 13.251 52.5887 14.5152C52.284 15.0403 52.1349 15.5589 52.1349 16.1748V26.8714H44.7574V7.67579H51.6811L51.8497 9.70492Z" fill="white"/>
<path d="M136.716 9.70492C137.663 8.8816 138.557 8.29815 139.698 7.77304C141.552 6.91731 143.406 6.77468 145.364 7.35165C147.465 7.96752 148.982 9.4456 149.643 11.5396C149.961 12.5379 150.103 13.4325 150.103 14.4892V26.8779H142.479V15.7339C142.479 15.3644 142.428 15.0403 142.324 14.6902C142.123 14.0549 141.708 13.5816 141.092 13.3158C139.744 12.7389 138.207 13.251 137.462 14.5152C137.157 15.0403 137.014 15.5589 137.014 16.1748V26.8714H129.637V7.67579H136.561L136.716 9.70492Z" fill="white"/>
<path d="M158.751 7.67566H151.575V26.8713H158.751V7.67566Z" fill="white"/>
<path d="M158.751 0H151.575V5.06957H158.751V0Z" fill="white"/>
<path d="M178.012 24.3688C176.579 25.8922 174.932 26.8063 172.864 27.2212C171.471 27.5065 170.252 27.5583 168.845 27.4092C166.972 27.2212 165.422 26.6183 163.918 25.4903C162.686 24.5697 161.798 23.5779 161.027 22.2424C160.437 21.2116 160.08 20.2457 159.892 19.0658C159.627 17.4386 159.691 16.0059 160.132 14.4111C161.105 10.7808 163.834 8.20708 167.516 7.44211C169.61 7.01425 171.477 7.05314 173.558 7.59121C175.036 7.96722 176.216 8.6155 177.331 9.65924C178.025 10.314 178.537 10.9688 178.984 11.8245C179.503 12.8293 179.717 13.8082 179.658 14.9427H173.091C172.955 14.0676 172.527 13.3674 171.821 12.8293C170.9 12.1292 169.72 12.0708 168.741 12.6802C168.074 13.0951 167.639 13.6656 167.399 14.4176C166.829 16.2069 166.81 17.873 167.309 19.6882C167.523 20.4467 167.879 21.0496 168.456 21.5876C169.117 22.21 169.941 22.4758 170.829 22.3396C171.386 22.2554 171.834 22.0155 172.21 21.5941C172.599 21.1533 172.826 20.6865 172.929 20.1096C173.001 19.7076 173.04 19.3575 173.065 18.9491H179.983C180.119 21.0236 179.458 22.8583 178.012 24.3688Z" fill="white"/>
</svg>
