<svg width="230" height="400" viewBox="0 0 230 400" fill="none" xmlns="http://www.w3.org/2000/svg">
<mask id="mask0" mask-type="alpha" maskUnits="userSpaceOnUse" x="0" y="0" width="230" height="400">
<rect width="230" height="400" fill="#C4C4C4"/>
</mask>
<g mask="url(#mask0)">
<path fill-rule="evenodd" clip-rule="evenodd" d="M273 -142.825L273 -103.397L-7 -259.592L-6.99999 -299.02L273 -142.825ZM273 352.125L273 391.552L-7 235.357L-6.99999 195.929L273 352.125ZM273 968.994L273 929.566L-6.99999 773.371L-7 812.799L273 968.994ZM273 104.65L273 144.078L-7 -12.1175L-6.99999 -51.5454L273 104.65ZM273 639.027L273 599.599L-6.99999 443.404L-7 482.832L273 639.027ZM273 1177.04L273 1216.47L-7 1060.27L-6.99999 1020.85L273 1177.04ZM273 -20.9056L273 -60.3335L-6.99999 -216.529L-7 -177.101L273 -20.9056ZM273 434.616L273 474.044L-7 317.849L-6.99999 278.421L273 434.616ZM273 1051.49L273 1012.06L-6.99999 855.862L-7 895.29L273 1051.49ZM273 187.141L273 226.569L-7 70.3741L-6.99999 30.9463L273 187.141ZM273 721.519L273 682.091L-6.99999 525.896L-7 565.324L273 721.519ZM273 1259.53L273 1298.96L-7 1142.77L-6.99999 1103.34L273 1259.53ZM273 61.586L273 22.1581L-6.99999 -134.037L-7 -94.6091L273 61.586ZM273 517.108L273 556.536L-7 400.341L-6.99999 360.913L273 517.108ZM273 1133.98L273 1094.55L-6.99999 938.354L-7 977.782L273 1133.98ZM273 269.633L273 309.061L-7 152.866L-6.99999 113.438L273 269.633ZM273 886.502L273 847.074L-6.99999 690.879L-7 730.307L273 886.502ZM273 764.583L273 804.011L-7 647.816L-6.99999 608.388L273 764.583ZM273 1381.45L273 1342.02L-6.99999 1185.83L-7 1225.26L273 1381.45Z" fill="url(#paint0_linear)"/>
</g>
<defs>
<linearGradient id="paint0_linear" x1="194" y1="2233.36" x2="-39.083" y2="2223.18" gradientUnits="userSpaceOnUse">
<stop stop-color="#6853A4"/>
<stop offset="1" stop-color="#092B4A"/>
</linearGradient>
</defs>
</svg>
