<svg width="40" height="40" viewBox="0 0 40 40" fill="none" xmlns="http://www.w3.org/2000/svg">
<path d="M20 4V8H4V4H20ZM21 1H3C1.9 1 1 1.9 1 3V9C1 10.1 1.9 11 3 11H21C22.1 11 23 10.1 23 9V3C23 1.9 22.1 1 21 1Z" fill="white"/>
<path d="M18 1H15V11H18V1Z" fill="white"/>
<path d="M35 4.5H23V7.5H35V4.5Z" fill="white"/>
<path d="M38 8.5H34C33.45 8.5 33 8.05 33 7.5V4.5C33 3.95 33.45 3.5 34 3.5H38C38.55 3.5 39 3.95 39 4.5V7.5C39 8.05 38.55 8.5 38 8.5Z" fill="white"/>
<path d="M17.05 30.5V29.5C17.05 29.22 16.83 29 16.55 29H14.05C12.95 29 12.05 29.9 12.05 31V33C12.05 34.1 12.95 35 14.05 35H14.55C14.83 35 15.05 35.22 15.05 35.5V36.5C15.05 36.78 14.83 37 14.55 37H12.55C12.27 37 12.05 37.22 12.05 37.5V38.5C12.05 38.78 12.27 39 12.55 39H15.05C16.15 39 17.05 38.1 17.05 37V35C17.05 33.9 16.15 33 15.05 33H14.55C14.27 33 14.05 32.78 14.05 32.5V31.5C14.05 31.22 14.27 31 14.55 31H16.55C16.82 31 17.05 30.78 17.05 30.5Z" fill="white"/>
<path d="M38.5 29H37.46C37.24 29 37.04 29.15 36.98 29.36L36.65 30.48L36.32 29.36C36.26 29.15 36.06 29 35.84 29H34.8C34.47 29 34.23 29.32 34.32 29.64L35.6 34L34.31 38.36C34.22 38.68 34.46 39 34.79 39H35.8299C36.0499 39 36.25 38.85 36.31 38.64L36.64 37.52L36.97 38.64C37.03 38.85 37.23 39 37.45 39H38.49C38.82 39 39.06 38.68 38.97 38.36L37.69 34L38.98 29.64C39.07 29.32 38.83 29 38.5 29Z" fill="white"/>
<path d="M5.5 33V29.5C5.5 29.22 5.28 29 5 29H1.5C1.22 29 1 29.22 1 29.5V38.5C1 38.78 1.22 39 1.5 39H5.5C5.78 39 6 38.78 6 38.5V33.5C6 33.22 5.78 33 5.5 33ZM3 31H3.5V33H3V31ZM4 37H3V35H4V37Z" fill="white"/>
<path d="M27.6 33V29.5C27.6 29.22 27.38 29 27.1 29H23.6C23.32 29 23.1 29.22 23.1 29.5V38.5C23.1 38.78 23.32 39 23.6 39H27.6C27.88 39 28.1 38.78 28.1 38.5V33.5C28.1 33.22 27.87 33 27.6 33ZM25.1 31H25.6V33H25.1V31ZM26.1 37H25.1V35H26.1V37Z" fill="white"/>
<path d="M22.0701 29H21.0701C20.7901 29 20.5701 29.22 20.5701 29.5V31.84V32.63C20.5701 32.84 20.4001 33 20.2001 33H19.9401C19.7301 33 19.5701 32.83 19.5701 32.63V29.5C19.5701 29.22 19.3501 29 19.0701 29H18.0701C17.7901 29 17.5701 29.22 17.5701 29.5V33.5C17.5701 34.33 18.2401 35 19.0701 35V38.5C19.0701 38.78 19.2901 39 19.5701 39H20.5701C20.8501 39 21.0701 38.78 21.0701 38.5V35C21.9001 35 22.5701 34.33 22.5701 33.5V29.5C22.5701 29.22 22.3501 29 22.0701 29Z" fill="white"/>
<path d="M31.62 29H30.62C29.52 29 28.62 29.9 28.62 31V37C28.62 38.1 29.52 39 30.62 39H31.62C32.72 39 33.62 38.1 33.62 37V31C33.62 29.9 32.72 29 31.62 29ZM31.62 36.5C31.62 36.78 31.4 37 31.12 37C30.84 37 30.62 36.78 30.62 36.5V31.5C30.62 31.22 30.84 31 31.12 31C31.4 31 31.62 31.22 31.62 31.5V36.5Z" fill="white"/>
<path d="M11.02 29H10.02C9.74002 29 9.52002 29.22 9.52002 29.5V36.5C9.52002 36.78 9.30002 37 9.02002 37C8.74002 37 8.52002 36.78 8.52002 36.5V29.5C8.52002 29.22 8.30002 29 8.02002 29H7.02002C6.74002 29 6.52002 29.22 6.52002 29.5V37C6.52002 38.1 7.42002 39 8.52002 39H9.52002C10.62 39 11.52 38.1 11.52 37V29.5C11.52 29.22 11.3 29 11.02 29Z" fill="white"/>
<path d="M38.5 22.5002H34.75C34.2 22.5002 33.75 22.0502 33.75 21.5002V18.5002C33.75 17.9502 34.2 17.5002 34.75 17.5002H38.5C38.88 17.5002 39.12 17.0902 38.94 16.7602C37.76 14.5102 35.4 12.9802 32.69 13.0102C29.61 13.0402 26.94 15.1702 26.06 18.0102H13.9599C13.0799 15.1702 10.3999 13.0402 7.32994 13.0102C4.60994 12.9902 2.24994 14.5202 1.07994 16.7602C0.899944 17.1002 1.13995 17.5002 1.51995 17.5002H5.26995C5.81995 17.5002 6.26995 17.9502 6.26995 18.5002V21.5002C6.26995 22.0502 5.81995 22.5002 5.26995 22.5002H1.51995C1.13995 22.5002 0.899965 22.9102 1.06996 23.2402C2.23996 25.4702 4.56995 27.0002 7.26995 27.0002C10.4399 27.0002 13.12 24.8902 13.98 22.0002H26.0499C26.9099 24.8902 29.59 27.0002 32.76 27.0002C35.46 27.0002 37.7899 25.4702 38.9599 23.2402C39.1199 22.9102 38.87 22.5002 38.5 22.5002Z" fill="white"/>
</svg>
