<svg width="40" height="40" viewBox="0 0 40 40" fill="none" xmlns="http://www.w3.org/2000/svg">
<path d="M37 1H3C1.9 1 1 1.9 1 3V37C1 38.1 1.9 39 3 39H37C38.1 39 39 38.1 39 37V3C39 1.9 38.1 1 37 1ZM35 34C35 34.55 34.55 35 34 35H6C5.45 35 5 34.55 5 34V6C5 5.45 5.45 5 6 5H34C34.55 5 35 5.45 35 6V34Z" fill="white"/>
<path d="M30 20.96H19C18.45 20.96 18 20.51 18 19.96V18.96C18 18.41 18.45 17.96 19 17.96H30C30.55 17.96 31 18.41 31 18.96V19.96C31 20.52 30.55 20.96 30 20.96Z" fill="white"/>
<path d="M30 27H10C9.45 27 9 26.55 9 26V25C9 24.45 9.45 24 10 24H30C30.55 24 31 24.45 31 25V26C31 26.56 30.55 27 30 27Z" fill="white"/>
<path d="M30 32H10C9.45 32 9 31.55 9 31V30C9 29.45 9.45 29 10 29H30C30.55 29 31 29.45 31 30V31C31 31.56 30.55 32 30 32Z" fill="white"/>
<path d="M9.34991 20.6698L8.63991 19.9597C8.24991 19.5697 8.24991 18.9398 8.63991 18.5498L12.8699 14.3198L8.63991 10.0897C8.24991 9.69974 8.24991 9.06974 8.63991 8.67974L9.34991 7.96975C9.73991 7.57975 10.3699 7.57975 10.7599 7.96975L16.4099 13.6197C16.7999 14.0097 16.7999 14.6397 16.4099 15.0297L10.7599 20.6797C10.3799 21.0597 9.73991 21.0598 9.34991 20.6698Z" fill="white"/>
</svg>
