<svg width="40" height="40" viewBox="0 0 40 40" fill="none" xmlns="http://www.w3.org/2000/svg">
<path d="M22.96 25.42C22.96 23.79 21.64 22.46 20 22.46C18.36 22.46 17.04 23.78 17.04 25.42C17.04 26.47 17.59 27.38 18.41 27.91V31.31C18.41 32.18 19.12 32.9 20 32.9C20.87 32.9 21.59 32.19 21.59 31.31V27.91C22.41 27.38 22.96 26.47 22.96 25.42Z" fill="white"/>
<path d="M33 15H7C5.9 15 5 15.9 5 17V37C5 38.1 5.9 39 7 39H33C34.1 39 35 38.1 35 37V17C35 15.9 34.1 15 33 15ZM31 34C31 34.55 30.55 35 30 35H10C9.45 35 9 34.55 9 34V20C9 19.45 9.45 19 10 19H30C30.55 19 31 19.45 31 20V34Z" fill="white"/>
<path d="M20 1C15.03 1 11 5.03 11 10V17H14V10C14 6.69 16.69 4 20 4C23.31 4 26 6.69 26 10V17H29V10C29 5.03 24.97 1 20 1Z" fill="white"/>
</svg>
