<svg width="40" height="40" viewBox="0 0 40 40" fill="none" xmlns="http://www.w3.org/2000/svg">
<g clip-path="url(#clip0)">
<path d="M14.09 1C13.98 1 13.88 1.09 13.89 1.21L14.15 4.89H24.02C22.49 4.32 20.84 4 19.11 4C18.23 4 17.38 4.09 16.54 4.25L14.25 1.09C14.21 1.03 14.15 1 14.09 1Z" fill="white"/>
<path d="M29.76 1.79004C29.71 1.79004 29.66 1.81004 29.62 1.85004L26.47 4.90004H29.24L29.95 2.05004C29.99 1.90004 29.88 1.79004 29.76 1.79004Z" fill="white"/>
<path d="M28.75 6.8501H10.68C10.33 7.1101 9.99998 7.3801 9.67998 7.6701L8.19998 6.8501H6.22998L7.82998 9.7301C7.58998 10.0501 7.36998 10.4001 7.15998 10.7401H15.07C14.93 10.6201 14.78 10.5001 14.61 10.4001L13.45 9.7601C15.06 8.6501 17.01 8.0001 19.11 8.0001C20.34 8.0001 21.51 8.2301 22.6 8.6401L22.52 8.7201C21.94 9.2801 21.65 10.0101 21.62 10.7401H31.04C30.35 9.6101 29.52 8.5701 28.54 7.6701L28.75 6.8501Z" fill="white"/>
<path d="M16.1299 12.6899H6.16994C5.65994 13.9099 5.32994 15.2199 5.18994 16.5899H9.21994C9.36994 15.5899 9.64994 14.6399 10.0699 13.7499L10.4999 14.5199C11.0599 15.5299 12.0899 16.0599 13.1299 16.0599C13.8899 16.0599 14.6499 15.7799 15.2499 15.1799L15.2799 15.1499C15.9599 14.4699 16.2199 13.5599 16.1299 12.6899Z" fill="white"/>
<path d="M32.0199 12.6899H27.5599C28.2899 13.8499 28.7999 15.1699 28.9999 16.5899H33.0199C33.0099 16.4499 32.9899 16.3099 32.9799 16.1799L36.5499 13.0799C36.6899 12.9599 36.5999 12.7299 36.4199 12.7299C36.4099 12.7299 36.3999 12.7299 36.3899 12.7299L32.3199 13.3799C32.2299 13.1399 32.1199 12.9199 32.0199 12.6899Z" fill="white"/>
<path d="M27.04 12.6899H22.24C22.47 12.9899 22.75 13.2699 23.11 13.4699L23.15 13.4899C23.63 13.7599 24.14 13.8899 24.63 13.8899C25.57 13.8999 26.47 13.4499 27.04 12.6899Z" fill="white"/>
<path d="M9.13 18.54H5.14C5.17 19.37 5.26 20.18 5.43 20.96L4 22.44H12.53C12.52 22.43 12.52 22.42 12.52 22.41L12.36 22.17C11.87 21.44 11.09 21.07 10.29 21.07C10.07 21.07 9.85 21.1 9.63 21.16C9.35 20.32 9.18 19.45 9.13 18.54Z" fill="white"/>
<path d="M16.48 20.6699C15.31 20.6699 14.24 21.3699 13.76 22.4399H19.23C18.91 21.7499 18.34 21.1599 17.55 20.8699L17.51 20.8499C17.16 20.7299 16.82 20.6699 16.48 20.6699Z" fill="white"/>
<path d="M33.09 18.54H29.08C29.06 18.94 29.01 19.34 28.95 19.73C28.92 19.73 28.89 19.73 28.85 19.73C28.08 19.73 27.32 20.07 26.83 20.75L26.69 20.94C26.36 21.39 26.22 21.92 26.23 22.43H32.75L32.47 22.17C32.84 21.02 33.04 19.8 33.09 18.54Z" fill="white"/>
<path d="M34.84 24.3799H26.78C24.94 26.5799 22.2 27.9999 19.11 27.9999C18.47 27.9999 17.84 27.9299 17.23 27.8199L18.95 25.4499C19.19 25.1199 19.33 24.7599 19.42 24.3899H13.42L13.3 26.1199C12.98 25.8899 12.67 25.6399 12.38 25.3699C12.62 25.0799 12.78 24.7399 12.86 24.3899H6.09998L4.76998 25.8399C4.14998 26.5199 3.95998 27.4599 4.22998 28.2899H9.52998L9.47998 28.1499C9.52998 28.1999 9.58998 28.2399 9.63998 28.2899H28.57C29.15 27.7599 29.69 27.1899 30.18 26.5599L31.5 27.5199L31.11 28.2899H36.84C37.15 27.3899 36.93 26.3499 36.19 25.6599L34.84 24.3799Z" fill="white"/>
<path d="M25.9 30.23H12.35C12.56 30.35 12.77 30.46 12.98 30.57L12.79 33.31C12.78 33.44 12.89 33.52 12.99 33.52C13.05 33.52 13.11 33.49 13.15 33.44L14.72 31.28C16.1 31.74 17.58 32 19.12 32C20.92 32 22.64 31.65 24.22 31.03L25.49 32.78C25.53 32.84 25.59 32.86 25.65 32.86C25.76 32.86 25.86 32.77 25.85 32.65L25.69 30.36C25.76 30.32 25.82 30.27 25.9 30.23Z" fill="white"/>
<path d="M10.22 30.23H5.59998L8.82998 34.13H11.6L10.22 30.23Z" fill="white"/>
<path d="M35.2399 30.23H30.1299L28.1699 34.13H31.2399L35.2399 30.23Z" fill="white"/>
<path d="M29.25 36.0801H27.2L26.57 37.3401C26.38 37.7101 26.69 38.0701 27.02 38.0701C27.14 38.0701 27.26 38.0301 27.36 37.9201L29.25 36.0801Z" fill="white"/>
<path d="M12.2999 36.0801H10.4399L11.8899 37.8301C11.9999 37.9601 12.1299 38.0101 12.2699 38.0101C12.5799 38.0101 12.8799 37.7101 12.7499 37.3401L12.2999 36.0801Z" fill="white"/>
</g>
<defs>
<clipPath id="clip0">
<rect width="32.98" height="37.07" fill="white" transform="translate(4 1)"/>
</clipPath>
</defs>
</svg>
