<svg width="40" height="40" viewBox="0 0 40 40" fill="none" xmlns="http://www.w3.org/2000/svg">
<path d="M31 23C26.58 23 23 26.58 23 31C23 35.42 26.58 39 31 39C35.42 39 39 35.42 39 31C39 26.58 35.42 23 31 23ZM28.69 29.85C28.55 29.85 28.41 29.83 28.27 29.79C27.49 29.56 27.03 28.76 27.24 27.98C27.52 26.95 28.63 25.12 30.95 25.12C31.1 25.12 31.26 25.13 31.42 25.14C33.04 25.31 34.37 26.51 34.72 28.14C35.14 30.06 34.11 31.96 31.98 33.21C31.74 33.35 31.48 33.42 31.22 33.42C30.71 33.42 30.2 33.16 29.93 32.68C29.51 31.97 29.75 31.05 30.47 30.63C31.43 30.07 31.92 29.38 31.79 28.79C31.71 28.45 31.43 28.17 31.11 28.14C31.06 28.13 31.02 28.13 30.97 28.13C30.55 28.13 30.27 28.36 30.13 28.8C29.93 29.43 29.33 29.85 28.69 29.85ZM31 37C30.17 37 29.5 36.33 29.5 35.5C29.5 34.67 30.17 34 31 34C31.83 34 32.5 34.67 32.5 35.5C32.5 36.33 31.83 37 31 37Z" fill="white"/>
<path d="M8 1H1.5C1.22 1 1 1.22 1 1.5V19.5C1 19.78 1.22 20 1.5 20H8C10.76 20 13 17.76 13 15V6C13 3.24 10.76 1 8 1ZM10 15C10 16.1 9.1 17 8 17H4V4H8C9.1 4 10 4.9 10 6V15Z" fill="white"/>
<path d="M27 5V8C27 10.21 28.79 12 31 12H35C35.55 12 36 12.45 36 13V16C36 16.55 35.55 17 35 17H31C30.45 17 30 16.55 30 16V15H27V16C27 18.21 28.79 20 31 20H35C37.21 20 39 18.21 39 16V13C39 10.79 37.21 9 35 9H31C30.45 9 30 8.55 30 8V5C30 4.45 30.45 4 31 4H35C35.55 4 36 4.45 36 5V6H39V5C39 2.79 37.21 1 35 1H31C28.79 1 27 2.79 27 5Z" fill="white"/>
<path d="M25.5 1H23.5C23.22 1 23 1.22 23 1.5V13.21L17.14 1.28C17.06 1.11 16.88 1 16.69 1H14.5C14.22 1 14 1.22 14 1.5V19.5C14 19.78 14.22 20 14.5 20H16.5C16.78 20 17 19.78 17 19.5V7.80002L22.86 19.72C22.94 19.89 23.12 20 23.31 20H25.5C25.78 20 26 19.78 26 19.5V1.5C26 1.23 25.78 1 25.5 1Z" fill="white"/>
</svg>
