<svg width="40" height="40" viewBox="0 0 40 40" fill="none" xmlns="http://www.w3.org/2000/svg">
<path d="M18.5 5C25.94 5 32 11.06 32 18.5C32 25.94 25.94 32 18.5 32C11.06 32 5 25.94 5 18.5C5 11.06 11.05 5 18.5 5ZM18.5 1C8.84 1 1 8.84 1 18.5C1 28.16 8.84 36 18.5 36C28.17 36 36 28.16 36 18.5C36 8.84 28.16 1 18.5 1Z" fill="white"/>
<path d="M36.02 38.8601L26.86 29.7001L29.69 26.8701L38.85 36.0301C39.05 36.2301 39.05 36.5401 38.85 36.7401L36.73 38.8601C36.54 39.0501 36.22 39.0501 36.02 38.8601Z" fill="white"/>
<path d="M11.74 13.5H9.23999C8.95999 13.5 8.73999 13.72 8.73999 14V23C8.73999 23.28 8.95999 23.5 9.23999 23.5H11.74C13.4 23.5 14.74 22.16 14.74 20.5V16.5C14.74 14.85 13.39 13.5 11.74 13.5ZM12.74 16.5V20.5C12.74 21.05 12.29 21.5 11.74 21.5H10.74V15.5H11.74C12.29 15.5 12.74 15.95 12.74 16.5Z" fill="white"/>
<path d="M20.25 13.5C19.97 13.5 19.75 13.72 19.75 14V18.3L17.88 13.81C17.8 13.62 17.62 13.5 17.42 13.5H16.25C15.97 13.5 15.75 13.72 15.75 14V23C15.75 23.28 15.97 23.5 16.25 23.5H17.25C17.53 23.5 17.75 23.28 17.75 23V18.7L19.62 23.19C19.7 23.38 19.88 23.5 20.08 23.5H21.25C21.53 23.5 21.75 23.28 21.75 23V14C21.75 13.72 21.53 13.5 21.25 13.5H20.25Z" fill="white"/>
<path d="M28.26 15V14C28.26 13.72 28.04 13.5 27.76 13.5H25.26C24.16 13.5 23.26 14.4 23.26 15.5V17.5C23.26 18.6 24.16 19.5 25.26 19.5H25.76C26.04 19.5 26.26 19.72 26.26 20V21C26.26 21.28 26.04 21.5 25.76 21.5H23.76C23.48 21.5 23.26 21.72 23.26 22V23C23.26 23.28 23.48 23.5 23.76 23.5H26.26C27.36 23.5 28.26 22.6 28.26 21.5V19.5C28.26 18.4 27.36 17.5 26.26 17.5H25.76C25.48 17.5 25.26 17.28 25.26 17V16C25.26 15.72 25.48 15.5 25.76 15.5H27.76C28.04 15.5 28.26 15.28 28.26 15Z" fill="white"/>
</svg>
