<svg width="40" height="40" viewBox="0 0 40 40" fill="none" xmlns="http://www.w3.org/2000/svg">
<path d="M23 19.31V1.5C23 1.22 22.78 1 22.5 1H17.5C17.22 1 17 1.22 17 1.5V19.31H13.47C13.06 19.31 12.83 19.77 13.06 20.1L19.59 29.27C19.79 29.55 20.21 29.55 20.4 29.27L26.93 20.1C27.17 19.77 26.93 19.31 26.52 19.31H23Z" fill="white"/>
<path d="M35 5H25V9H32C32.55 9 33 9.45 33 10V34C33 34.55 32.55 35 32 35H8C7.45 35 7 34.55 7 34V10C7 9.45 7.45 9 8 9H15V5H5C3.9 5 3 5.9 3 7V37C3 38.1 3.9 39 5 39H35C36.1 39 37 38.1 37 37V7C37 5.89 36.1 5 35 5Z" fill="white"/>
</svg>
