<svg width="40" height="40" viewBox="0 0 40 40" fill="none" xmlns="http://www.w3.org/2000/svg">
<path d="M5.7 27.4766H1.5C1.22 27.4766 1 27.6966 1 27.9766V37.9466C1 38.2266 1.22 38.4466 1.5 38.4466H2.5C2.78 38.4466 3 38.2266 3 37.9466V34.4766H5.81C7.98 34.4766 9.7 32.4766 9.23 30.2366C8.89 28.5966 7.37 27.4766 5.7 27.4766ZM5.81 32.4766H3V29.4766H5.81C6.64 29.4766 7.31 30.1466 7.31 30.9766C7.31 31.8066 6.64 32.4766 5.81 32.4766Z" fill="white"/>
<path d="M16.94 38.4466H18.09C18.47 38.4466 18.72 38.0266 18.52 37.6966L16.58 34.3366C18.22 33.8766 19.39 32.2666 19.11 30.4366C18.84 28.7066 17.25 27.4766 15.49 27.4766H11.34C11.06 27.4766 10.84 27.6966 10.84 27.9766V37.9466C10.84 38.2266 11.06 38.4466 11.34 38.4466H12.34C12.62 38.4466 12.84 38.2266 12.84 37.9466V34.4766H14.35L16.5 38.1966C16.6 38.3466 16.76 38.4466 16.94 38.4466ZM12.85 32.4766V29.4766H15.66C16.49 29.4766 17.16 30.1466 17.16 30.9766C17.16 31.8066 16.49 32.4766 15.66 32.4766H12.85Z" fill="white"/>
<path d="M25.51 29.4766C26.34 29.4766 27.01 30.1466 27.01 30.9766V34.9466C27.01 35.7766 26.34 36.4466 25.51 36.4466H24.2C23.37 36.4466 22.7 35.7766 22.7 34.9466V30.9766C22.7 30.1466 23.37 29.4766 24.2 29.4766H25.51ZM25.51 27.4766H24.2C22.28 27.4766 20.7 29.0566 20.7 30.9766V34.9466C20.7 36.8666 22.28 38.4466 24.2 38.4466H25.51C27.44 38.4466 29.01 36.8666 29.01 34.9466V30.9766C29.01 29.0466 27.43 27.4766 25.51 27.4766Z" fill="white"/>
<path d="M36.9599 35.6166C36.7899 35.6166 36.6499 35.7166 36.5399 35.8466C36.2699 36.2066 35.8399 36.4466 35.3499 36.4466H34.0399C33.2099 36.4466 32.5399 35.7766 32.5399 34.9466V30.9766C32.5399 30.1466 33.2099 29.4766 34.0399 29.4766H35.3499C35.8399 29.4766 36.2699 29.7166 36.5399 30.0766C36.6399 30.2166 36.7899 30.3066 36.9599 30.3066H38.5299C38.6599 30.3066 38.7599 30.1766 38.7299 30.0566C38.3199 28.5766 36.9599 27.4766 35.3599 27.4766H34.0499C32.1199 27.4766 30.5499 29.0566 30.5499 30.9766V34.9466C30.5499 36.8766 32.1299 38.4466 34.0499 38.4466H35.3599C36.9699 38.4466 38.3199 37.3466 38.7299 35.8666C38.7599 35.7366 38.6599 35.6166 38.5299 35.6166H36.9599Z" fill="white"/>
<path d="M35.61 7.79692L37.68 4.92693C38 4.47693 37.9 3.85693 37.45 3.52693L34.21 1.18692C33.76 0.866923 33.14 0.966926 32.81 1.41693L30.74 4.28692L35.61 7.79692Z" fill="white"/>
<path d="M25.6599 21.5867L21.4699 22.2667L20.7899 18.0767L29.5699 5.90674L34.4399 9.42674L25.6599 21.5867Z" fill="white"/>
<path d="M18.7499 12.917H10.6899C10.4099 12.917 10.1899 12.697 10.1899 12.417V10.417C10.1899 10.137 10.4099 9.91699 10.6899 9.91699H18.7499C19.0299 9.91699 19.2499 10.137 19.2499 10.417V12.417C19.2499 12.687 19.0299 12.917 18.7499 12.917Z" fill="white"/>
<path d="M16.4499 18.3867H10.6799C10.3999 18.3867 10.1799 18.1667 10.1799 17.8867V15.8867C10.1799 15.6067 10.3999 15.3867 10.6799 15.3867H16.4499C16.7299 15.3867 16.9499 15.6067 16.9499 15.8867V17.8867C16.9499 18.1567 16.7299 18.3867 16.4499 18.3867Z" fill="white"/>
<path d="M29.91 2.02686H5C3.9 2.02686 3 2.92686 3 4.02686V21.0269H7V7.02686C7 6.47686 7.45 6.02686 8 6.02686H27.02L29.91 2.02686Z" fill="white"/>
<path d="M33 14.8266V21.0266H37V9.28662L33 14.8266Z" fill="white"/>
</svg>
