<svg width="40" height="40" viewBox="0 0 40 40" fill="none" xmlns="http://www.w3.org/2000/svg">
<g clip-path="url(#clip0)">
<path d="M32.9301 8V19C32.9301 19.55 32.4801 20 31.9301 20H7.93005C7.38005 20 6.93005 19.55 6.93005 19V8H2.93005V22C2.93005 23.1 3.83005 24 4.93005 24H34.9301C36.0301 24 36.9301 23.1 36.9301 22V8H32.9301Z" fill="white"/>
<path d="M29.1299 28.0298H20.8199C20.5399 28.0298 20.3199 28.2498 20.3199 28.5298V29.5298C20.3199 29.8098 20.5399 30.0298 20.8199 30.0298H23.9799V38.4998C23.9799 38.7798 24.1999 38.9998 24.4799 38.9998H25.4799C25.7599 38.9998 25.9799 38.7798 25.9799 38.4998V30.0298H29.1399C29.4199 30.0298 29.6399 29.8098 29.6399 29.5298V28.5298C29.6299 28.2498 29.4099 28.0298 29.1299 28.0298Z" fill="white"/>
<path d="M19.03 28.0298H10.72C10.44 28.0298 10.22 28.2498 10.22 28.5298V29.5298C10.22 29.8098 10.44 30.0298 10.72 30.0298H13.88V38.4998C13.88 38.7798 14.1 38.9998 14.38 38.9998H15.38C15.66 38.9998 15.88 38.7798 15.88 38.4998V30.0298H19.04C19.32 30.0298 19.54 29.8098 19.54 29.5298V28.5298C19.53 28.2498 19.31 28.0298 19.03 28.0298Z" fill="white"/>
<path d="M35.24 28.0298H31.04C30.76 28.0298 30.54 28.2498 30.54 28.5298V38.4998C30.54 38.7798 30.76 38.9998 31.04 38.9998H32.04C32.32 38.9998 32.54 38.7798 32.54 38.4998V35.0298H35.35C37.52 35.0298 39.24 33.0298 38.77 30.7898C38.44 29.1498 36.91 28.0298 35.24 28.0298ZM35.36 33.0298H32.55V30.0298H35.36C36.19 30.0298 36.86 30.6998 36.86 31.5298C36.86 32.3598 36.18 33.0298 35.36 33.0298Z" fill="white"/>
<path d="M7.31 28.5298V32.5198H3V28.5298C3 28.2498 2.78 28.0298 2.5 28.0298H1.5C1.22 28.0298 1 28.2498 1 28.5298V38.4998C1 38.7798 1.22 38.9998 1.5 38.9998H2.5C2.78 38.9998 3 38.7798 3 38.4998V34.5098H7.31V38.4998C7.31 38.7798 7.53 38.9998 7.81 38.9998H8.81C9.09 38.9998 9.31 38.7798 9.31 38.4998V28.5298C9.31 28.2498 9.09 28.0298 8.81 28.0298H7.81C7.53 28.0298 7.31 28.2498 7.31 28.5298Z" fill="white"/>
<path d="M25.83 10.22H22.93V1.5C22.93 1.22 22.71 1 22.43 1H17.43C17.15 1 16.93 1.22 16.93 1.5V10.22H14.03C13.6 10.22 13.37 10.73 13.65 11.05L19.55 17.79C19.75 18.02 20.1 18.02 20.3 17.79L26.2 11.05C26.49 10.73 26.26 10.22 25.83 10.22Z" fill="white"/>
</g>
<defs>
<clipPath id="clip0">
<rect width="37.86" height="38" fill="white" transform="translate(1 1)"/>
</clipPath>
</defs>
</svg>
