<svg width="40" height="40" viewBox="0 0 40 40" fill="none" xmlns="http://www.w3.org/2000/svg">
<path d="M22 19.31V1.5C22 1.22 21.78 1 21.5 1H16.5C16.22 1 16 1.22 16 1.5V19.31H12.47C12.06 19.31 11.83 19.77 12.06 20.1L18.59 29.27C18.79 29.55 19.21 29.55 19.4 29.27L25.93 20.1C26.17 19.77 25.93 19.31 25.52 19.31H22Z" fill="white"/>
<path d="M30 22.6699C25.58 22.6699 22 26.2499 22 30.6699C22 35.0899 25.58 38.6699 30 38.6699C34.42 38.6699 38 35.0899 38 30.6699C38 26.2499 34.42 22.6699 30 22.6699ZM34.59 33.1499C35.18 33.7399 35.18 34.6899 34.59 35.2699C34.3 35.5599 33.91 35.7099 33.53 35.7099C33.15 35.7099 32.76 35.5599 32.47 35.2699L30 32.7999L27.53 35.2699C27.24 35.5599 26.85 35.7099 26.47 35.7099C26.09 35.7099 25.7 35.5599 25.41 35.2699C24.82 34.6799 24.82 33.7299 25.41 33.1499L27.88 30.6799L25.41 28.2099C24.82 27.6199 24.82 26.6699 25.41 26.0899C26 25.5099 26.95 25.4999 27.53 26.0899L30 28.5599L32.47 26.0899C33.06 25.4999 34.01 25.4999 34.59 26.0899C35.17 26.6799 35.18 27.6299 34.59 28.2099L32.12 30.6799L34.59 33.1499Z" fill="white"/>
<path d="M32 9.66992V20.8699C33.48 21.1699 34.84 21.8099 36 22.6799V6.66992C36 5.56992 35.1 4.66992 34 4.66992H24V8.66992H31C31.55 8.66992 32 9.11992 32 9.66992Z" fill="white"/>
<path d="M20.84 34.6699H7C6.45 34.6699 6 34.2199 6 33.6699V9.66992C6 9.11992 6.45 8.66992 7 8.66992H14V4.66992H4C2.9 4.66992 2 5.56992 2 6.66992V36.6699C2 37.7699 2.9 38.6699 4 38.6699H24.02C22.64 37.6399 21.53 36.2699 20.84 34.6699Z" fill="white"/>
</svg>
