<svg width="40" height="40" viewBox="0 0 40 40" fill="none" xmlns="http://www.w3.org/2000/svg">
<path fill-rule="evenodd" clip-rule="evenodd" d="M39.3657 25.8097C36.1311 36.3845 24.8943 42.3447 14.2706 39.1281C8.50951 37.3831 4.11204 33.3151 1.8076 28.2589C4.5243 31.0445 7.94926 33.1889 11.9239 34.3873C18.3192 36.3214 24.9154 35.4279 30.4123 32.4321C34.3235 30.2982 37.6744 27.0921 40 23.0766C39.852 24.0017 39.6406 24.9057 39.3657 25.8097ZM0.0317112 21.1635C0.0105695 20.764 0 20.3541 0 19.9441C2.88584 23.371 6.74416 26.0304 11.3319 27.418C17.7272 29.3521 24.3235 28.4586 29.8203 25.4628C33.9218 23.2238 37.4101 19.8075 39.7357 15.5187C39.7886 15.7499 39.8414 15.9812 39.8837 16.2124C39.8097 16.4963 39.7252 16.7801 39.6406 17.0639C37.8753 22.8454 33.9746 27.3864 29.0909 30.0459C24.2283 32.6949 18.3932 33.4833 12.7273 31.7699C7.06129 30.0564 2.65327 26.1671 0.0951336 21.2791L0.0317112 21.1635ZM0.433375 15.9076C0.539084 15.4346 0.655391 14.951 0.792812 14.478C3.48837 17.1795 6.84987 19.2609 10.7399 20.4382C17.1353 22.3723 23.7315 21.4788 29.2283 18.483C32.6427 16.6119 35.6342 13.9314 37.8858 10.6097C38.0867 10.9881 38.2769 11.377 38.4566 11.766C36.4905 16.7485 32.8858 20.6799 28.4989 23.0766C23.6364 25.7256 17.7907 26.514 12.1353 24.8006C7.10357 23.2763 3.05494 20.0492 0.433375 15.9076ZM1.84989 11.6188C2.44186 10.3364 3.16068 9.13804 3.99577 8.0343C5.89852 8.91729 7.70611 10.1051 9.32344 11.5978C10.5602 12.7331 11.6279 13.9734 12.5264 15.2979C13.6998 15.5923 14.8837 15.771 16.0571 15.834C14.8308 13.5425 13.2029 11.4296 11.1839 9.57953C9.54544 8.07635 7.74841 6.84647 5.84566 5.8899C6.50106 5.22766 7.20929 4.61798 7.94925 4.06086C10.7399 4.96487 13.3826 6.45754 15.6659 8.55989C17.8647 10.5676 19.5243 12.9328 20.666 15.4976C21.575 15.3189 22.463 15.0667 23.3298 14.7513C22.0507 11.7134 20.1163 8.91729 17.5264 6.55214C15.5074 4.70207 13.2452 3.26196 10.8456 2.24232C11.8499 1.72725 12.8964 1.28575 13.9852 0.949372C16.8922 1.84287 19.6406 3.36708 22.0084 5.54301C24.3023 7.64536 26.0253 10.1367 27.1564 12.8382C27.9387 12.3231 28.6892 11.7344 29.3975 11.1037C28.1184 8.31812 26.2791 5.73223 23.8795 3.53527C22.3467 2.13721 20.6765 0.970401 18.9112 0.0348545C21.2262 -0.101798 23.6047 0.160997 25.9619 0.865284C30.2431 2.15823 33.7738 4.74412 36.2473 8.06584C34.186 11.5137 31.279 14.2678 27.8858 16.1073C23.0232 18.7563 17.1882 19.5447 11.5222 17.8313C7.65327 16.6539 4.36575 14.457 1.84989 11.6188Z" fill="white"/>
</svg>
