<svg width="40" height="40" viewBox="0 0 40 40" fill="none" xmlns="http://www.w3.org/2000/svg">
<path d="M7.15997 14.9998H1.5C1.22 14.9998 1 14.7798 1 14.4998V8.83984C1 8.55984 1.22 8.33984 1.5 8.33984H2.5C2.78 8.33984 3 8.55984 3 8.83984V12.9998H7.15997C7.43997 12.9998 7.65997 13.2198 7.65997 13.4998V14.4998C7.65997 14.7798 7.42997 14.9998 7.15997 14.9998Z" fill="white"/>
<path d="M7.15997 26.9998H1.5C1.22 26.9998 1 26.7798 1 26.4998V20.8398C1 20.5598 1.22 20.3398 1.5 20.3398H2.5C2.78 20.3398 3 20.5598 3 20.8398V24.9998H7.15997C7.43997 24.9998 7.65997 25.2198 7.65997 25.4998V26.4998C7.65997 26.7798 7.42997 26.9998 7.15997 26.9998Z" fill="white"/>
<path d="M31.16 26.9998H25.5C25.22 26.9998 25 26.7798 25 26.4998V20.8398C25 20.5598 25.22 20.3398 25.5 20.3398H26.5C26.78 20.3398 27 20.5598 27 20.8398V24.9998H31.16C31.44 24.9998 31.66 25.2198 31.66 25.4998V26.4998C31.66 26.7798 31.43 26.9998 31.16 26.9998Z" fill="white"/>
<path d="M7.15997 38.9998H1.5C1.22 38.9998 1 38.7798 1 38.4998V32.8398C1 32.5598 1.22 32.3398 1.5 32.3398H2.5C2.78 32.3398 3 32.5598 3 32.8398V36.9998H7.15997C7.43997 36.9998 7.65997 37.2198 7.65997 37.4998V38.4998C7.65997 38.7798 7.42997 38.9998 7.15997 38.9998Z" fill="white"/>
<path d="M39 3.83V1H36.17L1 36.17V38.5C1 38.78 1.22 39 1.5 39H3.83002L39 3.83Z" fill="white"/>
<path d="M3.83002 15L17.83 1H12.17L1 12.17V14.5C1 14.78 1.22 15 1.5 15H3.83002Z" fill="white"/>
<path d="M3.83002 27L29.83 1H24.17L1 24.17V26.5C1 26.78 1.22 27 1.5 27H3.83002Z" fill="white"/>
<path d="M25 24.1699V26.4999C25 26.7799 25.22 26.9999 25.5 26.9999H27.83L39 15.8299V10.1699L25 24.1699Z" fill="white"/>
<path d="M37 29H32.5C32.22 29 32 29.22 32 29.5V38.5C32 38.78 32.22 39 32.5 39H33.5C33.78 39 34 38.78 34 38.5V35H37C38.1 35 39 34.1 39 33V31C39 29.9 38.11 29 37 29ZM36.5 33H34V31H36.5C36.78 31 37 31.22 37 31.5V32.5C37 32.78 36.78 33 36.5 33Z" fill="white"/>
<path d="M30.8699 30.5V29.5C30.8699 29.22 30.6499 29 30.3699 29H25.3699C25.0899 29 24.8699 29.22 24.8699 29.5V30.5C24.8699 30.78 25.0899 31 25.3699 31H26.8699V37H25.3699C25.0899 37 24.8699 37.22 24.8699 37.5V38.5C24.8699 38.78 25.0899 39 25.3699 39H30.3699C30.6499 39 30.8699 38.78 30.8699 38.5V37.5C30.8699 37.22 30.6499 37 30.3699 37H28.8699V31H30.3699C30.6499 31 30.8699 30.78 30.8699 30.5Z" fill="white"/>
</svg>
