<svg width="40" height="40" viewBox="0 0 40 40" fill="none" xmlns="http://www.w3.org/2000/svg">
<path d="M27.9615 22.2501L22.7915 16.1001C22.6115 15.8901 22.3015 15.8601 22.0915 16.0401L0.1815 34.4401C0.0815 34.5301 0.0115 34.6501 0.0015 34.7801C-0.0085 34.9101 0.0315 35.0401 0.1215 35.1401C0.4315 35.5001 1.2415 35.7501 2.5015 35.7501C6.7115 35.7501 15.9115 33.0301 27.9115 22.9501C28.0115 22.8601 28.0815 22.7401 28.0915 22.6101C28.0915 22.4801 28.0515 22.3501 27.9615 22.2501Z" fill="white"/>
<path d="M39.3715 8.21002L36.3915 4.66002C36.3015 4.56002 36.1815 4.49002 36.0515 4.48002C35.9215 4.47002 35.7915 4.51002 35.6915 4.60002L24.1615 14.29C23.9515 14.47 23.9215 14.78 24.1015 14.99L27.0815 18.54C27.1715 18.64 27.2915 18.71 27.4215 18.72C27.4315 18.72 27.4515 18.72 27.4615 18.72C27.5815 18.72 27.6915 18.68 27.7815 18.6L39.3115 8.91002C39.5215 8.74002 39.5515 8.42002 39.3715 8.21002Z" fill="white"/>
<path d="M33.8015 3H4.01147C3.73147 3 3.51147 3.22 3.51147 3.5V6.78H29.2915C31.0715 5.29 32.6115 3.99 33.8015 3Z" fill="white"/>
<path d="M24.7915 10.5698H3.51147V14.3498H20.2815C21.8315 13.0498 23.3415 11.7798 24.7915 10.5698Z" fill="white"/>
<path d="M15.7815 18.1401H3.51147V21.9201H11.2815C12.7515 20.6801 14.2615 19.4101 15.7815 18.1401Z" fill="white"/>
<path d="M29.5415 20.3201L30.8815 21.9201H37.5715V18.1401H32.1415L29.5415 20.3201Z" fill="white"/>
<path d="M6.77147 25.71H3.51147V28.45C4.53147 27.59 5.62147 26.67 6.77147 25.71Z" fill="white"/>
<path d="M23.2314 29.49H37.5714V25.71H28.3214C26.5714 27.09 24.8714 28.34 23.2314 29.49Z" fill="white"/>
<path d="M9.06152 37.0598H37.0715C37.3415 37.0598 37.5715 36.8398 37.5715 36.5598V33.2798H17.2915C14.3115 34.9898 11.5615 36.2498 9.06152 37.0598Z" fill="white"/>
</svg>
