<svg width="40" height="40" viewBox="0 0 40 40" fill="none" xmlns="http://www.w3.org/2000/svg">
<path d="M8.54145 39.7422C6.20145 39.7422 3.82145 38.6522 2.15145 36.6822C1.79145 36.2622 1.84145 35.6322 2.26145 35.2722C2.68145 34.9122 3.31145 34.9622 3.67145 35.3822C5.38145 37.3822 8.82145 37.3122 10.2815 36.6122C12.7715 35.4022 13.3515 33.4922 13.6315 29.5322C13.9915 24.4222 15.7915 22.1322 17.8515 19.7022C19.1515 18.1822 20.4915 16.6022 21.6615 14.1122C23.1715 10.9022 23.2715 7.54219 21.2715 5.06219C19.9915 3.47219 17.9615 2.70219 14.9015 3.04219C7.92145 3.84219 2.92145 11.6422 2.87145 11.7322C2.60145 12.2122 1.99145 12.3822 1.51145 12.1222C1.03145 11.8522 0.861452 11.2422 1.12145 10.7622C1.34145 10.3622 6.68145 0.982186 14.6615 0.0721857C18.4115 -0.347814 21.8515 1.08219 23.8815 3.91219C26.0715 6.96219 26.2815 11.1022 24.4615 14.9822C23.1715 17.7122 21.6815 19.4622 20.3715 21.0122C18.3815 23.3522 16.8115 25.2022 16.6215 29.6222C16.4115 34.6222 14.3215 38.1722 10.8815 39.3622C10.1315 39.6122 9.34145 39.7422 8.54145 39.7422Z" fill="white"/>
<path d="M7.00151 27.352C6.40151 27.352 5.80151 27.212 5.27151 26.912C4.45151 26.462 2.66151 24.962 3.57151 20.892C5.11151 14.072 12.9215 10.992 13.2515 10.862C13.7615 10.662 14.3415 10.922 14.5415 11.432C14.7415 11.942 14.4815 12.522 13.9715 12.722C13.9015 12.752 7.02151 15.492 5.72151 21.262C5.29151 23.172 5.53151 24.522 6.41151 25.012C7.09151 25.392 7.91151 25.322 8.60151 24.642C8.99151 24.252 9.63151 24.262 10.0115 24.652C10.4015 25.062 10.3915 25.692 10.0015 26.082C9.15151 26.912 8.06151 27.352 7.00151 27.352Z" fill="white"/>
<path d="M4.3014 31.6721C3.8214 31.6721 3.4014 31.3321 3.3214 30.8421C3.2314 30.3021 3.5914 29.7821 4.1314 29.6821C4.1414 29.6821 6.0814 29.3021 7.2814 27.5121C8.4614 25.7421 9.1714 22.3021 8.7714 20.3121C8.6514 19.7321 8.3014 19.4221 8.0414 19.2521C7.0814 18.6221 6.0214 19.6021 5.9214 19.6921C5.4914 20.0321 5.0814 19.6321 4.7414 19.2021C4.3914 18.7721 4.4514 18.1521 4.8814 17.8021C5.6914 17.1321 7.5314 16.3121 9.3014 17.4721C10.0014 17.9721 10.4914 18.7921 10.7214 19.9321C11.2314 22.4421 10.4114 26.4321 8.9314 28.6421C7.2514 31.1621 4.5814 31.6521 4.4614 31.6721C4.4114 31.6721 4.3514 31.6721 4.3014 31.6721Z" fill="white"/>
<path d="M24.1814 30.6223C23.8914 30.6223 23.6114 30.5023 23.4114 30.2623C23.0514 29.8423 23.1114 29.2123 23.5314 28.8523C24.8014 27.7823 25.5314 26.2323 25.5314 24.5723C25.5314 22.9123 24.8014 21.3623 23.5314 20.2923C23.1114 19.9323 23.0514 19.3023 23.4114 18.8823C23.7614 18.4623 24.4014 18.4023 24.8214 18.7623C26.5414 20.2123 27.5314 22.3223 27.5314 24.5723C27.5314 26.8223 26.5414 28.9423 24.8214 30.3823C24.6414 30.5423 24.4114 30.6223 24.1814 30.6223Z" fill="white"/>
<path d="M28.0514 35.3623C27.7614 35.3623 27.4814 35.2423 27.2814 35.0023C26.9314 34.5723 26.9914 33.9423 27.4114 33.5923C30.1114 31.3623 31.6514 28.0723 31.6514 24.5723C31.6514 21.0623 30.1014 17.7723 27.3914 15.5423C26.9614 15.1923 26.9014 14.5623 27.2614 14.1323C27.6114 13.7123 28.2414 13.6423 28.6714 14.0023C31.8414 16.6223 33.6614 20.4723 33.6614 24.5723C33.6614 28.6623 31.8514 32.5123 28.7014 35.1323C28.5014 35.2823 28.2714 35.3623 28.0514 35.3623Z" fill="white"/>
<path d="M32.0514 39.9923C31.7614 39.9923 31.4814 39.8723 31.2814 39.6323C30.9214 39.2123 30.9814 38.5823 31.4014 38.2223C35.4414 34.8223 37.7614 29.8523 37.7614 24.5723C37.7614 19.2323 35.4014 14.2223 31.2814 10.8223C30.8514 10.4723 30.7914 9.84233 31.1514 9.41233C31.5014 8.99233 32.1314 8.93233 32.5614 9.28233C37.1414 13.0623 39.7714 18.6423 39.7714 24.5723C39.7714 30.4423 37.1914 35.9723 32.6914 39.7523C32.5014 39.9123 32.2714 39.9923 32.0514 39.9923Z" fill="white"/>
</svg>
