<svg width="40" height="40" viewBox="0 0 40 40" fill="none" xmlns="http://www.w3.org/2000/svg">
<path d="M19.6399 18.4296L1.75994 38.1696C1.46994 38.4896 1.69994 39.0097 2.12994 39.0097H37.8799C38.3099 39.0097 38.5399 38.4996 38.2499 38.1696L20.3899 18.4296C20.1899 18.2096 19.8399 18.2096 19.6399 18.4296ZM10.0199 34.9997L19.9999 23.9896L29.9799 34.9997H10.0199Z" fill="white"/>
<path d="M16 1H3C1.9 1 1 1.9 1 3V18C1 19.1 1.9 20 3 20H16C17.1 20 18 19.1 18 18V3C18 1.9 17.11 1 16 1ZM14 15C14 15.55 13.55 16 13 16H6C5.45 16 5 15.55 5 15V6C5 5.45 5.45 5 6 5H13C13.55 5 14 5.45 14 6V15Z" fill="white"/>
<path d="M9.5 12.5C10.6046 12.5 11.5 11.6046 11.5 10.5C11.5 9.39543 10.6046 8.5 9.5 8.5C8.39543 8.5 7.5 9.39543 7.5 10.5C7.5 11.6046 8.39543 12.5 9.5 12.5Z" fill="white"/>
<path d="M29.5 12.5C30.6046 12.5 31.5 11.6046 31.5 10.5C31.5 9.39543 30.6046 8.5 29.5 8.5C28.3954 8.5 27.5 9.39543 27.5 10.5C27.5 11.6046 28.3954 12.5 29.5 12.5Z" fill="white"/>
<path d="M20 32.9799C21.1046 32.9799 22 32.0845 22 30.98C22 29.8754 21.1046 28.98 20 28.98C18.8954 28.98 18 29.8754 18 30.98C18 32.0845 18.8954 32.9799 20 32.9799Z" fill="white"/>
<path d="M29.5 5C32.53 5 35 7.47 35 10.5C35 13.53 32.53 16 29.5 16C26.47 16 24 13.53 24 10.5C24 7.47 26.47 5 29.5 5ZM29.5 1C24.25 1 20 5.25 20 10.5C20 15.75 24.25 20 29.5 20C34.75 20 39 15.75 39 10.5C39 5.25 34.75 1 29.5 1Z" fill="white"/>
</svg>
