<svg width="40" height="40" viewBox="0 0 40 40" fill="none" xmlns="http://www.w3.org/2000/svg">
<path d="M35.005 7.79692L37.0366 4.92693C37.3506 4.47693 37.2525 3.85693 36.8108 3.52693L33.631 1.18692C33.1893 0.86692 32.5808 0.966931 32.2569 1.41693L30.2253 4.28693L35.005 7.79692Z" fill="white"/>
<path d="M14.6203 37.9368V27.9668C14.6203 27.6868 14.4044 27.4668 14.1296 27.4668H13.1481C12.8733 27.4668 12.6574 27.6868 12.6574 27.9668V34.8268L7.98572 27.6868C7.89739 27.5468 7.74036 27.4668 7.57351 27.4668H5.97375C5.69895 27.4668 5.48303 27.6868 5.48303 27.9668V37.9368C5.48303 38.2168 5.69895 38.4368 5.97375 38.4368H6.9552C7.23 38.4368 7.44592 38.2168 7.44592 37.9368V30.4668L12.5102 38.2168C12.5985 38.3568 12.7555 38.4368 12.9224 38.4368H14.1296C14.4044 38.4368 14.6203 38.2168 14.6203 37.9368Z" fill="white"/>
<path d="M24.6409 28.9668V27.9668C24.6409 27.6868 24.425 27.4668 24.1502 27.4668H16.9758C16.701 27.4668 16.4851 27.6868 16.4851 27.9668V37.9368C16.4851 38.2168 16.701 38.4368 16.9758 38.4368H24.1502C24.425 38.4368 24.6409 38.2168 24.6409 37.9368V36.9368C24.6409 36.6568 24.425 36.4368 24.1502 36.4368H18.448V33.9468H24.1502C24.425 33.9468 24.6409 33.7268 24.6409 33.4468V32.4468C24.6409 32.1668 24.425 31.9468 24.1502 31.9468H18.448V29.4568H24.1502C24.4152 29.4668 24.6409 29.2468 24.6409 28.9668Z" fill="white"/>
<path d="M34.7988 27.4668H26.6429C26.3681 27.4668 26.1522 27.6868 26.1522 27.9668V28.9668C26.1522 29.2468 26.3681 29.4668 26.6429 29.4668H29.7443V37.9368C29.7443 38.2168 29.9602 38.4368 30.235 38.4368H31.2165C31.4913 38.4368 31.7072 38.2168 31.7072 37.9368V29.4668H34.8086C35.0834 29.4668 35.2993 29.2468 35.2993 28.9668V27.9668C35.2895 27.6968 35.0637 27.4668 34.7988 27.4668Z" fill="white"/>
<path d="M25.2395 21.5767L21.1272 22.2567L20.4598 18.0667L29.0769 5.90674L33.8566 9.41675L25.2395 21.5767Z" fill="white"/>
<path d="M18.4577 12.9067H10.5472C10.2724 12.9067 10.0565 12.6867 10.0565 12.4067V10.4067C10.0565 10.1267 10.2724 9.90674 10.5472 9.90674H18.4577C18.7325 9.90674 18.9484 10.1267 18.9484 10.4067V12.4067C18.9484 12.6867 18.7325 12.9067 18.4577 12.9067Z" fill="white"/>
<path d="M16.2004 18.377H10.5375C10.2627 18.377 10.0468 18.157 10.0468 17.877V15.877C10.0468 15.597 10.2627 15.377 10.5375 15.377H16.2004C16.4752 15.377 16.6911 15.597 16.6911 15.877V17.877C16.6911 18.157 16.4752 18.377 16.2004 18.377Z" fill="white"/>
<path d="M29.4107 2.01709H4.96289C3.8833 2.01709 3 2.91709 3 4.01709V21.0171H6.92578V7.01709C6.92578 6.46709 7.36743 6.01709 7.90723 6.01709H26.5743L29.4107 2.01709Z" fill="white"/>
<path d="M32.4434 14.8268V21.0168H36.3691V9.27686L32.4434 14.8268Z" fill="white"/>
</svg>
