<svg width="40" height="40" viewBox="0 0 40 40" fill="none" xmlns="http://www.w3.org/2000/svg">
<path d="M34.0701 25.1701V21.9001H38.4101C38.6901 21.9001 38.9101 21.6801 38.9101 21.4001V18.6001C38.9101 18.3201 38.6901 18.1001 38.4101 18.1001H34.0701V14.8301C34.0701 14.3801 33.52 14.1601 33.21 14.4901L28.3301 19.6601C28.1501 19.8501 28.1501 20.1501 28.3301 20.3501L33.21 25.5201C33.51 25.8501 34.0701 25.6301 34.0701 25.1701Z" fill="white"/>
<path d="M20 11.5H8C7.45 11.5 7 11.05 7 10.5V9.5C7 8.95 7.45 8.5 8 8.5H20C20.55 8.5 21 8.95 21 9.5V10.5C21 11.05 20.55 11.5 20 11.5Z" fill="white"/>
<path d="M30 4H29C28.45 4 28 3.55 28 3V2C28 1.45 28.45 1 29 1H30C30.55 1 31 1.45 31 2V3C31 3.55 30.55 4 30 4Z" fill="white"/>
<path d="M33.9601 4H32.9601C32.4101 4 31.9601 3.55 31.9601 3V2C31.9601 1.45 32.4101 1 32.9601 1H33.9601C34.5101 1 34.9601 1.45 34.9601 2V3C34.9601 3.55 34.5101 4 33.9601 4Z" fill="white"/>
<path d="M30 39H29C28.45 39 28 38.55 28 38V37C28 36.45 28.45 36 29 36H30C30.55 36 31 36.45 31 37V38C31 38.55 30.55 39 30 39Z" fill="white"/>
<path d="M33.9601 39H32.9601C32.4101 39 31.9601 38.55 31.9601 38V37C31.9601 36.45 32.4101 36 32.9601 36H33.9601C34.5101 36 34.9601 36.45 34.9601 37V38C34.9601 38.55 34.5101 39 33.9601 39Z" fill="white"/>
<path d="M37.91 4H36.91C36.36 4 35.91 3.55 35.91 3V2C35.91 1.45 36.36 1 36.91 1H37.91C38.46 1 38.91 1.45 38.91 2V3C38.91 3.55 38.46 4 37.91 4Z" fill="white"/>
<path d="M37.91 9.35986H36.91C36.36 9.35986 35.91 8.90986 35.91 8.35986V7.35986C35.91 6.80986 36.36 6.35986 36.91 6.35986H37.91C38.46 6.35986 38.91 6.80986 38.91 7.35986V8.35986C38.91 8.90986 38.46 9.35986 37.91 9.35986Z" fill="white"/>
<path d="M37.91 14.2197H36.91C36.36 14.2197 35.91 13.7697 35.91 13.2197V12.2197C35.91 11.6697 36.36 11.2197 36.91 11.2197H37.91C38.46 11.2197 38.91 11.6697 38.91 12.2197V13.2197C38.91 13.7697 38.46 14.2197 37.91 14.2197Z" fill="white"/>
<path d="M37.91 28.79H36.91C36.36 28.79 35.91 28.34 35.91 27.79V26.79C35.91 26.24 36.36 25.79 36.91 25.79H37.91C38.46 25.79 38.91 26.24 38.91 26.79V27.79C38.91 28.34 38.46 28.79 37.91 28.79Z" fill="white"/>
<path d="M37.91 33.6499H36.91C36.36 33.6499 35.91 33.1999 35.91 32.6499V31.6499C35.91 31.0999 36.36 30.6499 36.91 30.6499H37.91C38.46 30.6499 38.91 31.0999 38.91 31.6499V32.6499C38.91 33.1999 38.46 33.6499 37.91 33.6499Z" fill="white"/>
<path d="M37.91 39H36.91C36.36 39 35.91 38.55 35.91 38V37C35.91 36.45 36.36 36 36.91 36H37.91C38.46 36 38.91 36.45 38.91 37V38C38.91 38.55 38.46 39 37.91 39Z" fill="white"/>
<path d="M20 17.5H8C7.45 17.5 7 17.05 7 16.5V15.5C7 14.95 7.45 14.5 8 14.5H20C20.55 14.5 21 14.95 21 15.5V16.5C21 17.05 20.55 17.5 20 17.5Z" fill="white"/>
<path d="M20 24.5H8C7.45 24.5 7 24.05 7 23.5V22.5C7 21.95 7.45 21.5 8 21.5H20C20.55 21.5 21 21.95 21 22.5V23.5C21 24.05 20.55 24.5 20 24.5Z" fill="white"/>
<path d="M14 31.5H8C7.45 31.5 7 31.05 7 30.5V29.5C7 28.95 7.45 28.5 8 28.5H14C14.55 28.5 15 28.95 15 29.5V30.5C15 31.05 14.55 31.5 14 31.5Z" fill="white"/>
<path d="M25 1H3C1.9 1 1 1.9 1 3V37C1 38.1 1.9 39 3 39H25C26.1 39 27 38.1 27 37V3C27 1.9 26.11 1 25 1ZM23 34C23 34.55 22.55 35 22 35H6C5.45 35 5 34.55 5 34V6C5 5.45 5.45 5 6 5H22C22.55 5 23 5.45 23 6V34Z" fill="white"/>
</svg>
