<svg width="40" height="40" viewBox="0 0 40 40" fill="none" xmlns="http://www.w3.org/2000/svg">
<path d="M7.16003 14.9998H1.5C1.22 14.9998 1 14.7798 1 14.4998V8.83984C1 8.55984 1.22 8.33984 1.5 8.33984H2.5C2.78 8.33984 3 8.55984 3 8.83984V12.9998H7.16003C7.44003 12.9998 7.66003 13.2198 7.66003 13.4998V14.4998C7.66003 14.7798 7.44003 14.9998 7.16003 14.9998Z" fill="white"/>
<path d="M7.16003 26.9998H1.5C1.22 26.9998 1 26.7798 1 26.4998V20.8398C1 20.5598 1.22 20.3398 1.5 20.3398H2.5C2.78 20.3398 3 20.5598 3 20.8398V24.9998H7.16003C7.44003 24.9998 7.66003 25.2198 7.66003 25.4998V26.4998C7.66003 26.7798 7.44003 26.9998 7.16003 26.9998Z" fill="white"/>
<path d="M31.16 26.9998H25.5C25.22 26.9998 25 26.7798 25 26.4998V20.8398C25 20.5598 25.22 20.3398 25.5 20.3398H26.5C26.78 20.3398 27 20.5598 27 20.8398V24.9998H31.16C31.44 24.9998 31.66 25.2198 31.66 25.4998V26.4998C31.66 26.7798 31.44 26.9998 31.16 26.9998Z" fill="white"/>
<path d="M7.16003 38.9998H1.5C1.22 38.9998 1 38.7798 1 38.4998V32.8398C1 32.5598 1.22 32.3398 1.5 32.3398H2.5C2.78 32.3398 3 32.5598 3 32.8398V36.9998H7.16003C7.44003 36.9998 7.66003 37.2198 7.66003 37.4998V38.4998C7.66003 38.7798 7.44003 38.9998 7.16003 38.9998Z" fill="white"/>
<path d="M39.01 3.82999V1H36.18L1.01001 36.17V38.5C1.01001 38.78 1.23001 39 1.51001 39H3.84003L39.01 3.82999Z" fill="white"/>
<path d="M3.84003 15L17.84 1H12.18L1.01001 12.17V14.5C1.01001 14.78 1.23001 15 1.51001 15H3.84003Z" fill="white"/>
<path d="M3.84003 27L29.84 1H24.18L1.01001 24.17V26.5C1.01001 26.78 1.23001 27 1.51001 27H3.84003Z" fill="white"/>
<path d="M25.01 24.1797V26.5097C25.01 26.7897 25.23 27.0097 25.51 27.0097H27.84L39.01 15.8397V10.1797L25.01 24.1797Z" fill="white"/>
<path d="M23.87 29.0698H22.37C21.27 29.0698 20.37 29.9698 20.37 31.0698V37.0698C20.37 38.1698 21.27 39.0698 22.37 39.0698H23.87C24.97 39.0698 25.87 38.1698 25.87 37.0698V31.0698C25.87 29.9598 24.97 29.0698 23.87 29.0698ZM23.87 36.5698C23.87 36.8498 23.65 37.0698 23.37 37.0698H22.87C22.59 37.0698 22.37 36.8498 22.37 36.5698V31.5698C22.37 31.2898 22.59 31.0698 22.87 31.0698H23.37C23.65 31.0698 23.87 31.2898 23.87 31.5698V36.5698Z" fill="white"/>
<path d="M38.51 29.0698H33.51C33.23 29.0698 33.01 29.2898 33.01 29.5698V30.5698C33.01 30.8498 33.23 31.0698 33.51 31.0698H35.01V38.5698C35.01 38.8498 35.23 39.0698 35.51 39.0698H36.51C36.79 39.0698 37.01 38.8498 37.01 38.5698V31.0698H38.51C38.79 31.0698 39.01 30.8498 39.01 30.5698V29.5698C39.01 29.2898 38.78 29.0698 38.51 29.0698Z" fill="white"/>
<path d="M18.01 29.0698H14.51C14.23 29.0698 14.01 29.2898 14.01 29.5698V38.5698C14.01 38.8498 14.23 39.0698 14.51 39.0698H15.51C15.79 39.0698 16.01 38.8498 16.01 38.5698V35.0698H18.01C19.11 35.0698 20.01 34.1698 20.01 33.0698V31.0698C20.01 29.9598 19.11 29.0698 18.01 29.0698ZM17.51 33.0698H16.01V31.0698H17.51C17.79 31.0698 18.01 31.2898 18.01 31.5698V32.5698C18.01 32.8398 17.78 33.0698 17.51 33.0698Z" fill="white"/>
<path d="M32.66 33.0698V31.0698C32.66 29.9698 31.76 29.0698 30.66 29.0698H27.16C26.88 29.0698 26.66 29.2898 26.66 29.5698V38.5698C26.66 38.8498 26.88 39.0698 27.16 39.0698H28.16C28.44 39.0698 28.66 38.8498 28.66 38.5698V35.0698H29.52L30.49 38.6998C30.55 38.9198 30.75 39.0698 30.97 39.0698H32.01C32.34 39.0698 32.58 38.7598 32.49 38.4398L31.53 34.8598C32.2 34.5298 32.66 33.8598 32.66 33.0698ZM28.66 31.0698H30.16C30.44 31.0698 30.66 31.2898 30.66 31.5698V32.5698C30.66 32.8498 30.44 33.0698 30.16 33.0698H28.66V31.0698Z" fill="white"/>
</svg>
