<svg width="40" height="40" viewBox="0 0 40 40" fill="none" xmlns="http://www.w3.org/2000/svg">
<path d="M37 1H3C1.9 1 1 1.9 1 3V37C1 38.1 1.9 39 3 39H37C38.1 39 39 38.1 39 37V3C39 1.9 38.1 1 37 1ZM35 34C35 34.55 34.55 35 34 35H6C5.45 35 5 34.55 5 34V6C5 5.45 5.45 5 6 5H34C34.55 5 35 5.45 35 6V34Z" fill="white"/>
<path d="M30 12H10C9.45 12 9 11.55 9 11V10C9 9.45 9.45 9 10 9H30C30.55 9 31 9.45 31 10V11C31 11.55 30.55 12 30 12Z" fill="white"/>
<path d="M22 18H10C9.45 18 9 17.55 9 17V16C9 15.45 9.45 15 10 15H22C22.55 15 23 15.45 23 16V17C23 17.55 22.55 18 22 18Z" fill="white"/>
<path d="M10 24C9.45 24 9 23.55 9 23V22C9 21.45 9.45 21 10 21C10.55 21 11 21.45 11 22V23C11 23.55 10.55 24 10 24Z" fill="white"/>
<path d="M14 24C13.45 24 13 23.55 13 23V22C13 21.45 13.45 21 14 21C14.55 21 15 21.45 15 22V23C15 23.55 14.55 24 14 24Z" fill="white"/>
<path d="M18 24C17.45 24 17 23.55 17 23V22C17 21.45 17.45 21 18 21C18.55 21 19 21.45 19 22V23C19 23.55 18.55 24 18 24Z" fill="white"/>
<path d="M10 30C9.45 30 9 29.55 9 29V28C9 27.45 9.45 27 10 27C10.55 27 11 27.45 11 28V29C11 29.55 10.55 30 10 30Z" fill="white"/>
<path d="M14 30C13.45 30 13 29.55 13 29V28C13 27.45 13.45 27 14 27C14.55 27 15 27.45 15 28V29C15 29.55 14.55 30 14 30Z" fill="white"/>
<path d="M18 30C17.45 30 17 29.55 17 29V28C17 27.45 17.45 27 18 27C18.55 27 19 27.45 19 28V29C19 29.55 18.55 30 18 30Z" fill="white"/>
<path d="M22 24C21.45 24 21 23.55 21 23V22C21 21.45 21.45 21 22 21C22.55 21 23 21.45 23 22V23C23 23.55 22.55 24 22 24Z" fill="white"/>
<path d="M26 24C25.45 24 25 23.55 25 23V22C25 21.45 25.45 21 26 21C26.55 21 27 21.45 27 22V23C27 23.55 26.55 24 26 24Z" fill="white"/>
<path d="M30 24C29.45 24 29 23.55 29 23V22C29 21.45 29.45 21 30 21C30.55 21 31 21.45 31 22V23C31 23.55 30.55 24 30 24Z" fill="white"/>
<path d="M26 18C25.45 18 25 17.55 25 17V16C25 15.45 25.45 15 26 15C26.55 15 27 15.45 27 16V17C27 17.55 26.55 18 26 18Z" fill="white"/>
<path d="M30 18C29.45 18 29 17.55 29 17V16C29 15.45 29.45 15 30 15C30.55 15 31 15.45 31 16V17C31 17.55 30.55 18 30 18Z" fill="white"/>
</svg>
