<svg width="40" height="40" viewBox="0 0 40 40" fill="none" xmlns="http://www.w3.org/2000/svg">
<path d="M24.4699 35.4201L19.49 35.8201L17.7 31.1501L27.83 15.0801L34.5999 19.3401L24.4699 35.4201Z" fill="white"/>
<path d="M35.67 17.6503L38.09 13.8103C38.38 13.3403 38.24 12.7203 37.78 12.4303L32.7 9.2303C32.23 8.9403 31.61 9.08032 31.32 9.54032L28.9 13.3803L35.67 17.6503Z" fill="white"/>
<path d="M17.72 13.83L20.99 11.53L15.59 3.85001C15.22 3.32001 14.6 3 13.95 3H3C1.9 3 1 3.9 1 5V13H5V8C5 7.45 5.45 7 6 7H12.4C12.73 7 13.03 7.15999 13.22 7.42999L17.72 13.83Z" fill="white"/>
<path d="M35 22.4599V31.9799C35 32.5299 34.55 32.9799 34 32.9799H28.37L25.85 36.9799H37C38.1 36.9799 39 36.0799 39 34.9799V16.1099L35 22.4599Z" fill="white"/>
<path d="M16.14 32.98H6C5.45 32.98 5 32.53 5 31.98V14.98C5 14.43 5.45 13.98 6 13.98H26.16L28.68 9.97998H3C1.9 9.97998 1 10.88 1 11.98V34.98C1 36.08 1.9 36.98 3 36.98H17.44L16.14 32.98Z" fill="white"/>
</svg>
