<svg width="40" height="40" viewBox="0 0 40 40" fill="none" xmlns="http://www.w3.org/2000/svg">
<path d="M13.7993 1C13.6893 1 13.5893 1.08999 13.5993 1.20999L13.8593 4.92001C14.6293 4.63001 15.4293 4.39999 16.2493 4.23999L13.9593 1.08002C13.9193 1.03002 13.8593 1 13.7993 1Z" fill="white"/>
<path d="M18.8193 8C24.3293 8 28.8193 12.49 28.8193 18C28.8193 23.51 24.3293 28 18.8193 28C13.3093 28 8.81934 23.51 8.81934 18C8.81934 12.49 13.2993 8 18.8193 8ZM18.8193 4C11.0893 4 4.81934 10.27 4.81934 18C4.81934 25.73 11.0893 32 18.8193 32C26.5493 32 32.8193 25.73 32.8193 18C32.8193 10.27 26.5493 4 18.8193 4Z" fill="white"/>
<path d="M16.1794 20.6699C14.6594 20.6699 13.3094 21.8399 13.1894 23.4599L12.4894 33.3199C12.4794 33.4499 12.5894 33.5299 12.6894 33.5299C12.7494 33.5299 12.8095 33.4999 12.8495 33.4499L18.6494 25.4499C19.8194 23.8399 19.1194 21.5499 17.2494 20.8699L17.2094 20.8499C16.8694 20.7299 16.5194 20.6699 16.1794 20.6699Z" fill="white"/>
<path d="M29.4693 1.7998C29.4193 1.7998 29.3693 1.8198 29.3293 1.8598L22.2293 8.7298C20.7993 10.1198 21.0893 12.4898 22.8193 13.4798L22.8593 13.4998C23.3393 13.7798 23.8493 13.8998 24.3593 13.8998C25.6793 13.8998 26.9193 13.0298 27.2693 11.6298L29.6693 2.03979C29.6993 1.90979 29.5893 1.7998 29.4693 1.7998Z" fill="white"/>
<path d="M5.57931 5.58984C5.43931 5.58984 5.32933 5.74986 5.40933 5.88986L10.2093 14.5298C10.7693 15.5398 11.7993 16.0699 12.8393 16.0699C13.5993 16.0699 14.3593 15.7898 14.9593 15.1898L14.9893 15.1599C16.3993 13.7499 16.0693 11.3799 14.3293 10.4199L5.68929 5.61984C5.63929 5.58984 5.60931 5.58984 5.57931 5.58984Z" fill="white"/>
<path d="M12.2194 22.41L12.0594 22.17C11.1594 20.82 9.23939 20.67 8.13939 21.86L4.46941 25.83C3.61941 26.75 3.57938 28.16 4.37938 29.12L11.5894 37.82C11.9494 38.25 12.6294 37.86 12.4494 37.33L9.17937 28.12L11.8494 25.62C12.7394 24.79 12.8994 23.43 12.2194 22.41Z" fill="white"/>
<path d="M35.8994 25.65L30.2694 20.39C29.1694 19.37 27.4193 19.53 26.5393 20.75L26.3994 20.94C25.5894 22.06 25.8394 23.62 26.9594 24.43L31.2094 27.51L26.2694 37.3301C26.0194 37.8301 26.6593 38.31 27.0693 37.91L35.9493 29.26C36.9593 28.28 36.9494 26.63 35.8994 25.65Z" fill="white"/>
<path d="M36.1293 12.73C36.1193 12.73 36.1093 12.73 36.0993 12.73L32.0293 13.38C32.3393 14.27 32.5693 15.21 32.6893 16.18L36.2593 13.08C36.3993 12.96 36.2993 12.73 36.1293 12.73Z" fill="white"/>
<path d="M25.3893 30.3599C24.9193 30.6099 24.4193 30.8298 23.9193 31.0298L25.1893 32.7798C25.2293 32.8398 25.2894 32.8599 25.3494 32.8599C25.4594 32.8599 25.5593 32.7698 25.5493 32.6498L25.3893 30.3599Z" fill="white"/>
<path d="M5.1394 20.96L3.05939 23.11C2.92939 23.24 3.0294 23.45 3.1994 23.45C3.2194 23.45 3.22939 23.45 3.24939 23.44L5.6994 22.83C5.4694 22.23 5.2794 21.61 5.1394 20.96Z" fill="white"/>
</svg>
