<svg width="40" height="40" viewBox="0 0 40 40" fill="none" xmlns="http://www.w3.org/2000/svg">
<path d="M25.61 33V29.5C25.61 29.22 25.39 29 25.11 29H20.61C20.33 29 20.11 29.22 20.11 29.5V38.5C20.11 38.78 20.33 39 20.61 39H25.61C25.89 39 26.11 38.78 26.11 38.5V33.5C26.11 33.23 25.89 33 25.61 33ZM22.11 31H23.61V33H22.11V31ZM24.11 37H22.11V35H24.11V37Z" fill="white"/>
<path d="M20 4V8H4V4H20ZM21 1H3C1.9 1 1 1.9 1 3V9C1 10.1 1.9 11 3 11H21C22.1 11 23 10.1 23 9V3C23 1.9 22.1 1 21 1Z" fill="white"/>
<path d="M18 1H15V11H18V1Z" fill="white"/>
<path d="M35 4.5H23V7.5H35V4.5Z" fill="white"/>
<path d="M38 8.5H34C33.45 8.5 33 8.05 33 7.5V4.5C33 3.95 33.45 3.5 34 3.5H38C38.55 3.5 39 3.95 39 4.5V7.5C39 8.06 38.55 8.5 38 8.5Z" fill="white"/>
<path d="M38.5 22.4997H34.75C34.2 22.4997 33.75 22.0497 33.75 21.4997V18.4997C33.75 17.9497 34.2 17.4997 34.75 17.4997H38.5C38.88 17.4997 39.12 17.0897 38.94 16.7597C37.76 14.5097 35.4 12.9797 32.69 13.0097C29.61 13.0397 26.94 15.1697 26.06 18.0097H13.9599C13.0799 15.1697 10.3999 13.0397 7.32994 13.0097C4.60994 12.9897 2.24994 14.5197 1.07994 16.7597C0.899944 17.0997 1.13995 17.4997 1.51995 17.4997H5.26995C5.81995 17.4997 6.26995 17.9497 6.26995 18.4997V21.4997C6.26995 22.0497 5.81995 22.4997 5.26995 22.4997H1.51995C1.13995 22.4997 0.899965 22.9097 1.06996 23.2397C2.23996 25.4697 4.56995 26.9997 7.26995 26.9997C10.4399 26.9997 13.12 24.8897 13.98 21.9997H26.0499C26.9099 24.8897 29.59 26.9997 32.76 26.9997C35.46 26.9997 37.7899 25.4697 38.9599 23.2397C39.1199 22.9097 38.87 22.4997 38.5 22.4997Z" fill="white"/>
<path d="M11.36 29H9.35999C8.25999 29 7.35999 29.9 7.35999 31V37C7.35999 38.1 8.25999 39 9.35999 39H11.36C12.46 39 13.36 38.1 13.36 37V31C13.36 29.9 12.47 29 11.36 29ZM11.36 36.5C11.36 36.78 11.14 37 10.86 37H9.85999C9.57999 37 9.35999 36.78 9.35999 36.5V31.5C9.35999 31.22 9.57999 31 9.85999 31H10.86C11.14 31 11.36 31.22 11.36 31.5V36.5Z" fill="white"/>
<path d="M30.49 29H28.49C27.39 29 26.49 29.9 26.49 31V37C26.49 38.1 27.39 39 28.49 39H30.49C31.59 39 32.49 38.1 32.49 37V31C32.49 29.9 31.6 29 30.49 29ZM30.49 36.5C30.49 36.78 30.27 37 29.99 37H28.99C28.71 37 28.49 36.78 28.49 36.5V31.5C28.49 31.22 28.71 31 28.99 31H29.99C30.27 31 30.49 31.22 30.49 31.5V36.5Z" fill="white"/>
<path d="M19.24 29H18.24C17.96 29 17.74 29.22 17.74 29.5V32.5C17.74 32.78 17.52 33 17.24 33H16.24C15.96 33 15.74 32.78 15.74 32.5V29.5C15.74 29.22 15.52 29 15.24 29H14.24C13.96 29 13.74 29.22 13.74 29.5V33C13.74 34.1 14.64 35 15.74 35V38.5C15.74 38.78 15.96 39 16.24 39H17.24C17.52 39 17.74 38.78 17.74 38.5V35C18.84 35 19.74 34.1 19.74 33V29.5C19.74 29.23 19.51 29 19.24 29Z" fill="white"/>
<path d="M33.45 39H34.52C34.73 39 34.91 38.87 34.99 38.68L35.72 36.79L36.44 38.68C36.51 38.87 36.7 39 36.91 39H37.98C38.33 39 38.57 38.65 38.45 38.32L36.79 34L38.45 29.68C38.58 29.35 38.33 29 37.98 29H36.91C36.7 29 36.52 29.13 36.44 29.32L35.71 31.21L34.98 29.32C34.91 29.13 34.72 29 34.51 29H33.44C33.09 29 32.85 29.35 32.97 29.68L34.63 34L32.97 38.32C32.85 38.65 33.1 39 33.45 39Z" fill="white"/>
<path d="M6.53003 29H1.53003C1.25003 29 1.03003 29.22 1.03003 29.5V30.5C1.03003 30.78 1.25003 31 1.53003 31H3.03003V38.5C3.03003 38.78 3.25003 39 3.53003 39H4.53003C4.81003 39 5.03003 38.78 5.03003 38.5V31H6.53003C6.81003 31 7.03003 30.78 7.03003 30.5V29.5C7.03003 29.23 6.80003 29 6.53003 29Z" fill="white"/>
</svg>
