<svg width="40" height="40" viewBox="0 0 40 40" fill="none" xmlns="http://www.w3.org/2000/svg">
<path d="M26.84 38.9998H27.99C28.37 38.9998 28.62 38.5798 28.42 38.2498L26.48 34.8898C28.12 34.4298 29.29 32.8198 29.01 30.9898C28.74 29.2598 27.15 28.0298 25.39 28.0298H21.24C20.96 28.0298 20.74 28.2498 20.74 28.5298V38.4998C20.74 38.7798 20.96 38.9998 21.24 38.9998H22.24C22.52 38.9998 22.74 38.7798 22.74 38.4998V35.0298H24.25L26.4 38.7498C26.5 38.8998 26.66 38.9998 26.84 38.9998ZM22.75 33.0298V30.0298H25.56C26.39 30.0298 27.06 30.6998 27.06 31.5298C27.06 32.3598 26.39 33.0298 25.56 33.0298H22.75Z" fill="white"/>
<path d="M32.1899 28.0298H31.1899C30.9099 28.0298 30.6899 28.2498 30.6899 28.5298V38.4998C30.6899 38.7798 30.9099 38.9998 31.1899 38.9998H38.4999C38.7799 38.9998 38.9999 38.7798 38.9999 38.4998V37.4998C38.9999 37.2198 38.7799 36.9998 38.4999 36.9998H32.6899V28.5298C32.6899 28.2498 32.4699 28.0298 32.1899 28.0298Z" fill="white"/>
<path d="M18.18 28.0298H17.18C16.9 28.0298 16.68 28.2498 16.68 28.5298V30.0298V30.2698V35.4998C16.68 36.3298 16.01 36.9998 15.18 36.9998H13.87C13.04 36.9998 12.37 36.3298 12.37 35.4998V30.2698V30.0298V28.5298C12.37 28.2498 12.15 28.0298 11.87 28.0298H10.87C10.59 28.0298 10.37 28.2498 10.37 28.5298V35.4998C10.37 37.4198 11.95 38.9998 13.87 38.9998H15.18C17.11 38.9998 18.68 37.4198 18.68 35.4998V28.5298C18.68 28.2498 18.45 28.0298 18.18 28.0298Z" fill="white"/>
<path d="M30 12H10C9.45 12 9 11.55 9 11V10C9 9.45 9.45 9 10 9H30C30.55 9 31 9.45 31 10V11C31 11.55 30.55 12 30 12Z" fill="white"/>
<path d="M30 18H10C9.45 18 9 17.55 9 17V16C9 15.45 9.45 15 10 15H30C30.55 15 31 15.45 31 16V17C31 17.55 30.55 18 30 18Z" fill="white"/>
<path d="M19 24H10C9.45 24 9 23.55 9 23V22C9 21.45 9.45 21 10 21H19C19.55 21 20 21.45 20 22V23C20 23.55 19.55 24 19 24Z" fill="white"/>
<path d="M8.37 35H6C5.45 35 5 34.55 5 34V6C5 5.45 5.45 5 6 5H34C34.55 5 35 5.45 35 6V26.03H39V3C39 1.9 38.1 1 37 1H3C1.9 1 1 1.9 1 3V37C1 38.1 1.9 39 3 39H8.37V35Z" fill="white"/>
</svg>
