<svg width="40" height="40" viewBox="0 0 40 40" fill="none" xmlns="http://www.w3.org/2000/svg">
<path d="M31 23C26.58 23 23 26.58 23 31C23 35.42 26.58 39 31 39C35.42 39 39 35.42 39 31C39 26.58 35.42 23 31 23ZM30.75 36.14C30.46 36.43 30.07 36.58 29.69 36.58C29.31 36.58 28.92 36.43 28.63 36.14L25.09 32.6C24.5 32.01 24.5 31.06 25.09 30.48C25.68 29.89 26.63 29.89 27.21 30.48L29.68 32.96L34.77 27.87C35.36 27.28 36.31 27.28 36.89 27.87C37.48 28.46 37.48 29.41 36.89 29.99L30.75 36.14Z" fill="white"/>
<path d="M32 3V10C32 11.1 32.9 12 34 12H36V17H35V15H32V18C32 19.1 32.9 20 34 20H37C38.1 20 39 19.1 39 18V11C39 9.9 38.1 9 37 9H35V4H36V6H39V3C39 1.9 38.1 1 37 1H34C32.89 1 32 1.9 32 3Z" fill="white"/>
<path d="M6.5 1C6.22 1 6 1.22 6 1.5V9H4V1.5C4 1.22 3.78 1 3.5 1H1.5C1.22 1 1 1.22 1 1.5V19.5C1 19.78 1.22 20 1.5 20H3.5C3.78 20 4 19.78 4 19.5V12H6V19.5C6 19.78 6.22 20 6.5 20H8.5C8.78 20 9 19.78 9 19.5V1.5C9 1.22 8.78 1 8.5 1H6.5Z" fill="white"/>
<path d="M23.62 1.5V19.5C23.62 19.78 23.84 20 24.12 20H26.12C26.4 20 26.62 19.78 26.62 19.5V12H28.62C29.72 12 30.62 11.1 30.62 10V3C30.62 1.9 29.72 1 28.62 1H24.12C23.85 1 23.62 1.23 23.62 1.5ZM26.62 9V4H27.62V9H26.62Z" fill="white"/>
<path d="M15.62 1H10.62C10.34 1 10.12 1.22 10.12 1.5V3.5C10.12 3.78 10.34 4 10.62 4H11.62V19.5C11.62 19.78 11.84 20 12.12 20H14.12C14.4 20 14.62 19.78 14.62 19.5V4H15.62C15.9 4 16.12 3.78 16.12 3.5V1.5C16.12 1.23 15.9 1 15.62 1Z" fill="white"/>
<path d="M22.5601 1H17.5601C17.2801 1 17.0601 1.22 17.0601 1.5V3.5C17.0601 3.78 17.2801 4 17.5601 4H18.5601V19.5C18.5601 19.78 18.7801 20 19.0601 20H21.0601C21.3401 20 21.5601 19.78 21.5601 19.5V4H22.5601C22.8401 4 23.0601 3.78 23.0601 3.5V1.5C23.0601 1.23 22.8401 1 22.5601 1Z" fill="white"/>
</svg>
