<svg width="40" height="40" viewBox="0 0 40 40" fill="none" xmlns="http://www.w3.org/2000/svg">
<path d="M21 3V10C21 11.1 21.9 12 23 12H26V17H24V15.5C24 15.22 23.78 15 23.5 15H21.5C21.22 15 21 15.22 21 15.5V18C21 19.1 21.9 20 23 20H27C28.1 20 29 19.1 29 18V11C29 9.9 28.1 9 27 9H24V4H26V5.5C26 5.78 26.22 6 26.5 6H28.5C28.78 6 29 5.78 29 5.5V3C29 1.9 28.1 1 27 1H23C21.89 1 21 1.9 21 3Z" fill="white"/>
<path d="M1 1.5V19.5C1 19.78 1.22 20 1.5 20H3.5C3.78 20 4 19.78 4 19.5V12H7C8.1 12 9 11.1 9 10V3C9 1.9 8.1 1 7 1H1.5C1.22 1 1 1.23 1 1.5ZM4 9V4H6V9H4Z" fill="white"/>
<path d="M38.5 1H31.5C31.22 1 31 1.22 31 1.5V3.5C31 3.78 31.22 4 31.5 4H33.5V19.5C33.5 19.78 33.72 20 34 20H36C36.28 20 36.5 19.78 36.5 19.5V4H38.5C38.78 4 39 3.78 39 3.5V1.5C39 1.23 38.77 1 38.5 1Z" fill="white"/>
<path d="M17 1H13C11.9 1 11 1.9 11 3V18C11 19.1 11.9 20 13 20H17C18.1 20 19 19.1 19 18V3C19 1.9 18.1 1 17 1ZM16 16C16 16.55 15.55 17 15 17C14.45 17 14 16.55 14 16V5C14 4.45 14.45 4 15 4C15.55 4 16 4.45 16 5V16Z" fill="white"/>
<path d="M31 23C26.58 23 23 26.58 23 31C23 35.42 26.58 39 31 39C35.42 39 39 35.42 39 31C39 26.58 35.42 23 31 23ZM28.69 29.85C28.55 29.85 28.41 29.83 28.27 29.79C27.49 29.56 27.03 28.76 27.24 27.98C27.52 26.95 28.63 25.12 30.95 25.12C31.1 25.12 31.26 25.13 31.42 25.14C33.04 25.31 34.37 26.51 34.72 28.14C35.14 30.06 34.11 31.96 31.98 33.21C31.74 33.35 31.48 33.42 31.22 33.42C30.71 33.42 30.2 33.16 29.93 32.68C29.51 31.97 29.75 31.05 30.47 30.63C31.43 30.07 31.92 29.38 31.79 28.79C31.71 28.45 31.43 28.17 31.11 28.14C31.06 28.13 31.02 28.13 30.97 28.13C30.55 28.13 30.27 28.36 30.13 28.8C29.93 29.43 29.33 29.85 28.69 29.85ZM31 37C30.17 37 29.5 36.33 29.5 35.5C29.5 34.67 30.17 34 31 34C31.83 34 32.5 34.67 32.5 35.5C32.5 36.33 31.83 37 31 37Z" fill="white"/>
</svg>
